<svg width="221" height="219" viewBox="0 0 221 219" fill="none" xmlns="http://www.w3.org/2000/svg">
<g opacity="0.5">
<path d="M132.996 152.799L144.706 159.56L144.771 145.936L133.06 139.175L132.996 152.799Z" fill="#171A20"/>
<path d="M144.827 132.307L156.538 139.068L144.771 145.936L133.06 139.175L144.827 132.307Z" fill="#2F353F"/>
<path d="M144.77 145.937L144.705 159.561L156.48 152.697L156.537 139.068L144.77 145.937Z" fill="#22272F"/>
<path d="M122.996 208.799L134.706 215.56L134.771 201.936L123.06 195.175L122.996 208.799Z" fill="#171A20"/>
<path d="M134.827 188.307L146.538 195.068L134.771 201.936L123.06 195.175L134.827 188.307Z" fill="#2F353F"/>
<path d="M134.77 201.937L134.705 215.561L146.48 208.697L146.537 195.068L134.77 201.937Z" fill="#22272F"/>
<path d="M5.99578 176.799L17.7061 183.56L17.7708 169.936L6.06044 163.175L5.99578 176.799Z" fill="#171A20"/>
<path d="M17.8272 156.307L29.5375 163.068L17.7708 169.936L6.06044 163.175L17.8272 156.307Z" fill="#2F353F"/>
<path d="M17.77 169.937L17.7053 183.561L29.4803 176.697L29.5367 163.068L17.77 169.937Z" fill="#22272F"/>
<path d="M76.9958 103.799L88.7061 110.56L88.7708 96.9359L77.0604 90.1749L76.9958 103.799Z" fill="#171A20"/>
<path d="M88.8272 83.3067L100.538 90.0677L88.7708 96.9359L77.0604 90.1749L88.8272 83.3067Z" fill="#2F353F"/>
<path d="M88.77 96.9365L88.7053 110.561L100.48 103.697L100.537 90.0683L88.77 96.9365Z" fill="#22272F"/>
<path d="M15.0269 134.905L35.0941 146.491L35.2049 123.144L15.1377 111.558L15.0269 134.905Z" fill="#F3A03C"/>
<path d="M35.3016 99.7885L55.3688 111.374L35.2049 123.144L15.1377 111.558L35.3016 99.7885Z" fill="#FFC36C"/>
<path d="M35.2044 123.144L35.0936 146.492L55.2716 134.73L55.3683 111.375L35.2044 123.144Z" fill="#F5B353"/>
<path opacity="0.5" d="M27.6501 127.921C27.7785 126.601 27.1068 125.897 26.1782 125.413L26.4745 123.624L25.7435 123.345L25.4471 125.091C25.2496 125.017 25.052 124.959 24.8643 124.885L25.1607 123.125L24.4296 122.847L24.1333 124.636C23.9752 124.577 23.8172 124.533 23.669 124.475L22.6613 124.093L22.4638 125.252C22.4638 125.252 23.0071 125.443 22.9972 125.443C23.2936 125.56 23.3529 125.839 23.343 126.073L22.9972 128.112C23.017 128.127 23.0466 128.127 23.0763 128.141C23.0565 128.127 23.0269 128.127 22.9972 128.112L22.5132 130.972C22.4736 131.104 22.3847 131.309 22.1773 131.236C22.1872 131.25 21.6438 131.045 21.6438 131.045L21.2783 132.292L22.2366 132.644C22.4144 132.717 22.5922 132.776 22.7601 132.849L22.4539 134.653L23.1849 134.932L23.4813 133.142C23.6789 133.23 23.8764 133.304 24.0641 133.362L23.7678 135.137L24.4988 135.416L24.805 133.612C26.0596 133.964 26.9981 133.817 27.3932 132.145C27.7094 130.796 27.3735 130.018 26.7215 129.505C27.1957 129.359 27.5513 128.889 27.6501 127.921ZM25.9707 131.412C25.7435 132.761 24.2123 132.028 23.7085 131.852L24.1135 129.461C24.6173 129.637 26.2078 130.004 25.9707 131.412ZM26.1979 127.907C25.9905 129.139 24.7161 128.508 24.3012 128.361L24.6667 126.191C25.0816 126.337 26.4153 126.616 26.1979 127.907Z" fill="white"/>
<path opacity="0.5" d="M49.5512 127.921C49.6796 126.601 49.0079 125.897 48.0793 125.413L48.3757 123.624L47.6446 123.345L47.3483 125.091C47.1507 125.017 46.9531 124.959 46.7654 124.885L47.0618 123.125L46.3308 122.847L46.0344 124.636C45.8763 124.577 45.7183 124.533 45.5701 124.475L44.5625 124.093L44.3649 125.252C44.3649 125.252 44.9082 125.443 44.8983 125.443C45.1947 125.56 45.254 125.839 45.2441 126.073L44.8983 128.112C44.9181 128.127 44.9477 128.127 44.9774 128.141C44.9576 128.127 44.928 128.127 44.8983 128.112L44.4143 130.972C44.3748 131.104 44.2859 131.309 44.0784 131.236C44.0883 131.25 43.545 131.045 43.545 131.045L43.1794 132.292L44.1377 132.644C44.3155 132.717 44.4933 132.776 44.6613 132.849L44.355 134.653L45.086 134.932L45.3824 133.142C45.58 133.23 45.7776 133.304 45.9652 133.362L45.6689 135.137L46.3999 135.416L46.7062 133.612C47.9608 133.964 48.8992 133.817 49.2944 132.145C49.6105 130.796 49.2746 130.018 48.6226 129.505C49.0968 129.359 49.4524 128.889 49.5512 127.921ZM47.8718 131.412C47.6446 132.761 46.1134 132.028 45.6096 131.852L46.0146 129.461C46.5185 129.637 48.1089 130.004 47.8718 131.412ZM48.0991 127.907C47.8916 129.139 46.6172 128.508 46.2023 128.361L46.5678 126.191C46.9828 126.337 48.3164 126.616 48.0991 127.907Z" fill="white"/>
<path opacity="0.5" d="M40.5306 110.7C40.7415 109.843 39.6381 109.386 38.1128 109.072L38.5996 107.91L37.3989 107.73L36.9121 108.863C36.5875 108.815 36.263 108.777 35.9547 108.729L36.4415 107.587L35.2407 107.406L34.7539 108.567C34.4943 108.529 34.2347 108.501 33.9913 108.463L32.3362 108.215L32.0116 108.967C32.0116 108.967 32.9041 109.091 32.8879 109.091C33.3747 109.167 33.472 109.348 33.4558 109.501L32.8879 110.824C32.9203 110.834 32.969 110.834 33.0177 110.843C32.9852 110.834 32.9366 110.834 32.8879 110.824L32.0928 112.681C32.0279 112.767 31.8818 112.9 31.5411 112.852C31.5573 112.862 30.6648 112.729 30.6648 112.729L30.0645 113.538L31.6384 113.767C31.9305 113.814 32.2226 113.852 32.4984 113.9L31.9954 115.071L33.1962 115.252L33.683 114.09C34.0075 114.147 34.332 114.195 34.6403 114.233L34.1535 115.385L35.3543 115.566L35.8573 114.395C37.9181 114.624 39.4596 114.528 40.1087 113.443C40.6279 112.567 40.0762 112.062 39.0053 111.729C39.7842 111.634 40.3683 111.329 40.5306 110.7ZM37.772 112.967C37.3988 113.843 34.8837 113.367 34.0562 113.252L34.7215 111.7C35.549 111.814 38.1615 112.053 37.772 112.967ZM38.1453 110.691C37.8045 111.491 35.7113 111.081 35.0298 110.986L35.6302 109.577C36.3117 109.672 38.5023 109.853 38.1453 110.691Z" fill="white"/>
<path d="M175.874 168.847L193.848 179.224L193.947 158.313L175.973 147.936L175.874 168.847Z" fill="#161616"/>
<path d="M194.034 137.394L212.007 147.771L193.947 158.313L175.973 147.936L194.034 137.394Z" fill="#BDBEBE"/>
<path d="M193.947 158.312L193.847 179.224L211.92 168.689L212.007 147.771L193.947 158.312Z" fill="#5A5A5A"/>
<path opacity="0.5" fill-rule="evenodd" clip-rule="evenodd" d="M185.036 162.366L185.036 162.366V165.885L182.817 163.893L182.818 163.893L185.036 158.314V158.312L185.036 158.313L185.036 158.313V158.314L187.255 163.893L187.255 163.893L187.255 163.893L187.255 163.894L187.255 163.894L185.036 165.885V162.366ZM185.036 169.319V166.585L187.255 164.593L185.036 169.319ZM185.036 169.319V166.585L182.817 164.593L185.036 169.319Z" fill="white"/>
<path opacity="0.5" fill-rule="evenodd" clip-rule="evenodd" d="M201.613 163.892L203.83 158.315V158.312L203.831 158.314L203.831 158.313V158.315L206.049 163.893L206.049 163.893L206.049 163.893L206.049 163.894L206.049 163.894L203.831 165.884V165.885L203.831 165.885L203.83 165.885V165.884L201.612 163.893L201.613 163.892ZM203.831 166.584L201.612 164.593L203.83 169.319V169.319L203.831 169.319L203.831 169.319V169.319L206.049 164.593L203.831 166.584Z" fill="white"/>
<path opacity="0.5" fill-rule="evenodd" clip-rule="evenodd" d="M189.866 148.278L194.123 144.217V144.216L198.381 148.278L198.381 148.278L198.381 148.278L198.381 148.278L198.381 148.278L194.123 149.727H194.123L189.866 148.278L189.865 148.279L189.865 148.278L189.865 148.278L189.866 148.278ZM198.381 148.787L194.123 152.227L189.865 148.787L194.123 150.237H194.123L198.381 148.787Z" fill="white"/>
<path d="M77.9425 46.0796L100.548 59.1309L100.673 32.8305L78.0673 19.7793L77.9425 46.0796Z" fill="#EFBD21"/>
<path d="M100.782 6.52099L123.387 19.5723L100.673 32.8305L78.0673 19.7793L100.782 6.52099Z" fill="#FFD245"/>
<path d="M100.673 32.8306L100.548 59.1309L123.278 45.8818L123.387 19.5723L100.673 32.8306Z" fill="#F4C614"/>
<path opacity="0.5" d="M92.1402 40.123L93.1293 41.6407L94.1252 40.123L93.1293 38.6053L92.1402 40.123ZM89.7292 36.4492L88.0258 39.0449L87.0298 37.5273L88.7332 34.942L89.7292 33.4243L90.7252 34.942L92.4218 37.5273L91.4258 39.0449L89.7292 36.4492ZM86.3292 38.6053L87.3183 40.123L86.3223 41.6407L85.3332 40.123L86.3292 38.6053ZM89.7292 43.7968L91.4327 41.2011L92.4218 42.7188L90.7183 45.3145L89.7292 46.8217L88.7332 45.304L87.0298 42.7083L88.0258 41.2011L89.7292 43.7968ZM89.7292 41.6407L88.7332 40.123L89.7292 38.6053L90.7252 40.123L89.7292 41.6407Z" fill="white"/>
<path opacity="0.5" d="M114.749 39.7046L115.738 41.2222L116.734 39.7046L115.738 38.1869L114.749 39.7046ZM112.338 36.0307L110.634 38.6265L109.638 37.1088L111.342 34.5235L112.338 33.0059L113.334 34.5235L115.03 37.1088L114.034 38.6265L112.338 36.0307ZM108.938 38.1869L109.927 39.7046L108.931 41.2222L107.942 39.7046L108.938 38.1869ZM112.338 43.3784L114.041 40.7826L115.03 42.3003L113.327 44.896L112.338 46.4033L111.342 44.8856L109.638 42.2898L110.634 40.7826L112.338 43.3784ZM112.338 41.2222L111.342 39.7046L112.338 38.1869L113.334 39.7046L112.338 41.2222Z" fill="white"/>
<path opacity="0.5" d="M106.2 20.0267L108.319 21.2598L110.454 20.0267L108.319 18.7936L106.2 20.0267ZM101.034 17.0417L97.3833 19.1507L95.2491 17.9176L98.8993 15.8171L101.034 14.584L103.168 15.8171L106.803 17.9176L104.669 19.1507L101.034 17.0417ZM93.7478 18.7936L95.8673 20.0267L93.733 21.2598L91.6135 20.0267L93.7478 18.7936ZM101.034 23.0117L104.684 20.9026L106.803 22.1357L103.153 24.2448L101.034 25.4694L98.8993 24.2363L95.2491 22.1272L97.3833 20.9026L101.034 23.0117ZM101.034 21.2598L98.8993 20.0267L101.034 18.7936L103.168 20.0267L101.034 21.2598Z" fill="white"/>
</g>
</svg>
