<svg width="232" height="145" viewBox="0 0 232 145" fill="none" xmlns="http://www.w3.org/2000/svg">
<g opacity="0.5">
<path d="M139.852 133.871L151.562 140.632L151.627 127.007L139.916 120.246L139.852 133.871Z" fill="#DEDEDE"/>
<path d="M151.683 113.378L163.393 120.139L151.627 127.007L139.916 120.246L151.683 113.378Z" fill="#FAFAFA"/>
<path d="M151.626 127.008L151.561 140.632L163.336 133.769L163.393 120.14L151.626 127.008Z" fill="#EDEDED"/>
<path d="M82.8517 99.8706L94.5621 106.632L94.6267 93.0072L82.9164 86.2462L82.8517 99.8706Z" fill="#DEDEDE"/>
<path d="M94.6831 79.3781L106.393 86.139L94.6267 93.0072L82.9164 86.2462L94.6831 79.3781Z" fill="#FAFAFA"/>
<path d="M94.6262 93.0082L94.5615 106.633L106.336 99.7691L106.393 86.14L94.6262 93.0082Z" fill="#EDEDED"/>
<path d="M10.0265 114.906L30.0936 126.491L30.2044 103.144L10.1373 91.5584L10.0265 114.906Z" fill="#F3A03C"/>
<path d="M30.3011 79.7888L50.3683 91.3746L30.2044 103.144L10.1373 91.5584L30.3011 79.7888Z" fill="#FFC36C"/>
<path d="M30.2039 103.145L30.0931 126.492L50.2711 114.731L50.3678 91.3753L30.2039 103.145Z" fill="#F5B353"/>
<path opacity="0.5" d="M22.6496 107.921C22.778 106.601 22.1063 105.897 21.1777 105.413L21.474 103.624L20.743 103.345L20.4467 105.091C20.2491 105.017 20.0515 104.959 19.8638 104.885L20.1602 103.125L19.4291 102.847L19.1328 104.636C18.9747 104.577 18.8167 104.533 18.6685 104.475L17.6609 104.093L17.4633 105.252C17.4633 105.252 18.0066 105.443 17.9967 105.443C18.2931 105.56 18.3524 105.839 18.3425 106.073L17.9967 108.112C18.0165 108.127 18.0461 108.127 18.0758 108.141C18.056 108.127 18.0264 108.127 17.9967 108.112L17.5127 110.972C17.4732 111.104 17.3843 111.309 17.1768 111.236C17.1867 111.251 16.6434 111.045 16.6434 111.045L16.2778 112.292L17.2361 112.644C17.4139 112.717 17.5917 112.776 17.7596 112.849L17.4534 114.653L18.1844 114.932L18.4808 113.143C18.6784 113.231 18.8759 113.304 19.0636 113.363L18.7673 115.137L19.4983 115.416L19.8045 113.612C21.0591 113.964 21.9976 113.817 22.3928 112.145C22.7089 110.796 22.373 110.019 21.721 109.505C22.1952 109.359 22.5508 108.889 22.6496 107.921ZM20.9702 111.412C20.743 112.761 19.2118 112.028 18.708 111.852L19.113 109.461C19.6168 109.637 21.2073 110.004 20.9702 111.412ZM21.1974 107.907C20.99 109.139 19.7156 108.508 19.3007 108.361L19.6662 106.191C20.0811 106.337 21.4148 106.616 21.1974 107.907Z" fill="white"/>
<path opacity="0.5" d="M44.5507 107.921C44.6792 106.601 44.0074 105.897 43.0788 105.413L43.3752 103.624L42.6441 103.346L42.3478 105.091C42.1502 105.017 41.9526 104.959 41.7649 104.885L42.0613 103.126L41.3303 102.847L41.0339 104.636C40.8758 104.577 40.7178 104.533 40.5696 104.475L39.562 104.093L39.3644 105.252C39.3644 105.252 39.9077 105.443 39.8979 105.443C40.1942 105.56 40.2535 105.839 40.2436 106.073L39.8979 108.112C39.9176 108.127 39.9473 108.127 39.9769 108.141C39.9571 108.127 39.9275 108.127 39.8979 108.112L39.4138 110.972C39.3743 111.104 39.2854 111.309 39.0779 111.236C39.0878 111.251 38.5445 111.045 38.5445 111.045L38.179 112.292L39.1372 112.644C39.315 112.717 39.4928 112.776 39.6608 112.849L39.3545 114.653L40.0856 114.932L40.3819 113.143C40.5795 113.231 40.7771 113.304 40.9648 113.363L40.6684 115.137L41.3994 115.416L41.7057 113.612C42.9603 113.964 43.8987 113.817 44.2939 112.145C44.61 110.796 44.2741 110.019 43.6221 109.505C44.0963 109.359 44.4519 108.889 44.5507 107.921ZM42.8713 111.412C42.6441 112.761 41.1129 112.028 40.6091 111.852L41.0142 109.461C41.518 109.637 43.1084 110.004 42.8713 111.412ZM43.0986 107.907C42.8911 109.139 41.6168 108.508 41.2019 108.361L41.5674 106.191C41.9823 106.337 43.3159 106.616 43.0986 107.907Z" fill="white"/>
<path opacity="0.5" d="M35.5301 90.7007C35.741 89.8437 34.6376 89.3867 33.1123 89.0724L33.5991 87.9107L32.3984 87.7298L31.9116 88.8629C31.587 88.8153 31.2625 88.7772 30.9542 88.7296L31.441 87.587L30.2402 87.4061L29.7534 88.5678C29.4938 88.5297 29.2342 88.5011 28.9908 88.463L27.3357 88.2154L27.0111 88.9677C27.0111 88.9677 27.9036 89.0915 27.8874 89.0915C28.3742 89.1677 28.4715 89.3486 28.4553 89.5009L27.8874 90.8245C27.9198 90.834 27.9685 90.834 28.0172 90.8435C27.9848 90.834 27.9361 90.834 27.8874 90.8245L27.0923 92.6813C27.0274 92.767 26.8814 92.9003 26.5406 92.8527C26.5568 92.8622 25.6644 92.7289 25.6644 92.7289L25.064 93.5383L26.6379 93.7668C26.93 93.8144 27.2221 93.8525 27.4979 93.9001L26.9949 95.0713L28.1957 95.2523L28.6825 94.0906C29.007 94.1477 29.3316 94.1953 29.6399 94.2334L29.1531 95.3856L30.3538 95.5665L30.8568 94.3953C32.9176 94.6238 34.4591 94.5286 35.1082 93.4431C35.6274 92.567 35.0757 92.0624 34.0048 91.7291C34.7837 91.6339 35.3678 91.3292 35.5301 90.7007ZM32.7716 92.967C32.3984 93.843 29.8833 93.3669 29.0557 93.2526L29.721 91.7005C30.5485 91.8148 33.161 92.0528 32.7716 92.967ZM33.1448 90.6912C32.804 91.491 30.7108 91.0816 30.0293 90.9864L30.6297 89.5771C31.3112 89.6723 33.5018 89.8532 33.1448 90.6912Z" fill="white"/>
<path d="M186.874 108.847L204.848 119.224L204.947 98.3124L186.974 87.9353L186.874 108.847Z" fill="#161616"/>
<path d="M205.034 77.3936L223.007 87.7707L204.947 98.3124L186.974 87.9353L205.034 77.3936Z" fill="#BDBEBE"/>
<path d="M204.947 98.3124L204.848 119.224L222.92 108.69L223.007 87.7707L204.947 98.3124Z" fill="#5A5A5A"/>
<path opacity="0.5" fill-rule="evenodd" clip-rule="evenodd" d="M196.036 102.365L196.036 102.365V105.884L193.817 103.893L193.818 103.893L196.036 98.3135V98.3123L196.036 98.3129L196.036 98.3125V98.3133L198.255 103.893L198.255 103.893L198.255 103.893L198.255 103.893L198.255 103.893L196.036 105.884V102.365ZM196.036 109.319V106.584L198.255 104.593L196.036 109.319ZM196.036 109.319V106.584L193.817 104.593L196.036 109.319Z" fill="white"/>
<path opacity="0.5" fill-rule="evenodd" clip-rule="evenodd" d="M212.613 103.892L214.831 98.315V98.3123L214.831 98.3137L214.832 98.3127V98.3147L217.049 103.893L217.05 103.893L217.049 103.893L217.05 103.893L217.049 103.893L214.831 105.884V105.884L214.831 105.884L214.831 105.884V105.884L212.612 103.893L212.613 103.892ZM214.831 106.584L212.612 104.593L214.831 109.318V109.319L214.831 109.319L214.831 109.319V109.318L217.05 104.593L214.831 106.584Z" fill="white"/>
<path opacity="0.5" fill-rule="evenodd" clip-rule="evenodd" d="M200.866 88.2779L205.123 84.2169V84.2163L209.381 88.2781L209.381 88.2782L209.381 88.2782L209.381 88.2782L209.381 88.2782L205.123 89.7274H205.123L200.866 88.2784L200.865 88.2786L200.865 88.2783L200.865 88.2782L200.866 88.2779ZM209.381 88.7875L205.123 92.2268L200.865 88.7875L205.123 90.2367H205.123L209.381 88.7875Z" fill="white"/>
<path d="M88.9425 46.0795L111.548 59.1307L111.673 32.8304L89.0673 19.7791L88.9425 46.0795Z" fill="#EFBD21"/>
<path d="M111.782 6.52124L134.387 19.5725L111.673 32.8308L89.0673 19.7795L111.782 6.52124Z" fill="#FFD245"/>
<path d="M111.673 32.8306L111.548 59.1309L134.278 45.8818L134.387 19.5723L111.673 32.8306Z" fill="#F4C614"/>
<path opacity="0.5" d="M103.14 40.123L104.129 41.6406L105.125 40.123L104.129 38.6053L103.14 40.123ZM100.729 36.4491L99.0258 39.0449L98.0298 37.5272L99.7332 34.9419L100.729 33.4243L101.725 34.9419L103.422 37.5272L102.426 39.0449L100.729 36.4491ZM97.3292 38.6053L98.3183 40.123L97.3223 41.6406L96.3332 40.123L97.3292 38.6053ZM100.729 43.7968L102.433 41.201L103.422 42.7187L101.718 45.3144L100.729 46.8217L99.7332 45.304L98.0298 42.7082L99.0258 41.201L100.729 43.7968ZM100.729 41.6406L99.7332 40.123L100.729 38.6053L101.725 40.123L100.729 41.6406Z" fill="white"/>
<path opacity="0.5" d="M125.749 39.7044L126.738 41.222L127.734 39.7044L126.738 38.1867L125.749 39.7044ZM123.338 36.0306L121.634 38.6263L120.638 37.1086L122.342 34.5234L123.338 33.0057L124.334 34.5234L126.03 37.1086L125.034 38.6263L123.338 36.0306ZM119.938 38.1867L120.927 39.7044L119.931 41.222L118.942 39.7044L119.938 38.1867ZM123.338 43.3782L125.041 40.7824L126.03 42.3001L124.327 44.8959L123.338 46.4031L122.342 44.8854L120.638 42.2897L121.634 40.7824L123.338 43.3782ZM123.338 41.222L122.342 39.7044L123.338 38.1867L124.334 39.7044L123.338 41.222Z" fill="white"/>
<path opacity="0.5" d="M117.2 20.0267L119.319 21.2598L121.454 20.0267L119.319 18.7936L117.2 20.0267ZM112.034 17.0418L108.383 19.1508L106.249 17.9177L109.899 15.8172L112.034 14.584L114.168 15.8172L117.803 17.9177L115.669 19.1508L112.034 17.0418ZM104.748 18.7936L106.867 20.0267L104.733 21.2598L102.614 20.0267L104.748 18.7936ZM112.034 23.0117L115.684 20.9027L117.803 22.1358L114.153 24.2448L112.034 25.4694L109.899 24.2363L106.249 22.1273L108.383 20.9027L112.034 23.0117ZM112.034 21.2598L109.899 20.0267L112.034 18.7936L114.168 20.0267L112.034 21.2598Z" fill="white"/>
</g>
</svg>
