<svg xmlns="http://www.w3.org/2000/svg" xmlns:xlink="http://www.w3.org/1999/xlink" id="Layer_1" viewBox="0 0 631.99 611.7">
    <defs>
        <linearGradient id="linear-gradient" x1="74.5" x2="556.97" y1="334.18" y2="334.18" gradientUnits="userSpaceOnUse">
            <stop offset=".15" stop-color="#2ec3fd"/>
            <stop offset=".29" stop-color="#6d71fa"/>
            <stop offset=".41" stop-color="#ba3de4"/>
            <stop offset=".56" stop-color="#f234b8"/>
            <stop offset=".7" stop-color="#fd7f85"/>
            <stop offset=".85" stop-color="#fbc15d"/>
        </linearGradient>
        <linearGradient id="linear-gradient-2" x1="72.9" x2="558.57" y1="334.18" y2="334.18" xlink:href="#linear-gradient"/>
        <linearGradient id="linear-gradient-3" x1="286.21" x2="253.96" y1="1046.98" y2="1012.4" gradientTransform="matrix(1 .08 .08 -1 -69.45 1314.76)" gradientUnits="userSpaceOnUse">
            <stop offset=".15" stop-color="#2ac5fe"/>
            <stop offset=".29" stop-color="#6c74fb"/>
            <stop offset=".41" stop-color="#bb42e5"/>
            <stop offset=".56" stop-color="#f338b9"/>
            <stop offset=".7" stop-color="#fe7f86"/>
            <stop offset=".85" stop-color="#fcc15d"/>
        </linearGradient>
        <clipPath id="clip-path">
            <path d="M275.86 129.38s3.32 1.06 4.16 2.64c0 0-.77 7.34-12.71 9.89s-15.5-2.49-15.5-2.49a18.22 18.22 0 0 1 5.83-7.55c7.66-5.74 17.11-2.87 18.22-2.49z" class="cls-1"/>
        </clipPath>
        <clipPath id="clip-path-2">
            <path d="M296.44 122s-1.69 4.68-1.64 6.17c0 0 3.13 5 11.41 1.8s8.65-8.31 8.65-8.31-11.52-5.47-18.42.34z" class="cls-1"/>
        </clipPath>
        <style>
            .cls-1,.cls-14,.cls-16,.cls-20,.cls-21,.cls-24,.cls-28,.cls-31,.cls-47,.cls-50,.cls-9{fill:none}.cls-2{fill:#fffef9}.cls-3{fill:#fff}.cls-16,.cls-20,.cls-21,.cls-47,.cls-50,.cls-9{stroke-width:3.2px}.cls-6{fill:#59d2fc}.cls-7{fill:#b0eeff}.cls-8{fill:#51abb7}.cls-9{stroke:#51abb7}.cls-14,.cls-16,.cls-20,.cls-21,.cls-24,.cls-28,.cls-31,.cls-40,.cls-47,.cls-50,.cls-9{stroke-linecap:round;stroke-linejoin:round}.cls-11{fill:#fef098}.cls-12{fill:#fff9e1}.cls-14{stroke:#b7854a}.cls-14,.cls-24,.cls-28,.cls-31{stroke-width:3.27px}.cls-15{fill:#f27070}.cls-16{stroke:#cc4848}.cls-17{fill:#fedf33}.cls-18{fill:#4090c0}.cls-19{fill:#9574b2}.cls-20{stroke:#693c99}.cls-21{stroke:#1e6284}.cls-22{fill:#fecbae}.cls-23{fill:#e89874}.cls-24{stroke:#9a491e}.cls-25{fill:#d3e5e5}.cls-26{fill:#ffe4da}.cls-27{fill:#f4ad8e}.cls-28{stroke:#91432d}.cls-29{fill:#b7854a}.cls-30{fill:#9a491e}.cls-31{stroke:#a0a8aa}.cls-33{fill:#f998b9}.cls-35{fill:#a5114a}.cls-36{fill:#420100}.cls-38{fill:#a0a8aa}.cls-40{fill:#993b16;stroke:#471900;stroke-width:1.63px}.cls-41{fill:#471900}.cls-42{fill:#120800}.cls-44{fill:#bdc4c6}.cls-47{stroke:#9fa7a9}.cls-50{stroke:#d3b41e}.cls-59{fill:#352249}.cls-60{fill:#85e5ff}
        </style>
    </defs>
    <path d="M158.42 426.73a3.2 3.2 0 1 1-.2-6.4h.42a3.21 3.21 0 0 1 .1 6.41h-.32z" class="cls-2"/>
    <path d="M323.94 513.25c-47.46 0-87.13-7.45-118-22.18-23.95-11.43-34.89-23.68-38.23-28a3.52 3.52 0 0 1 1.85-6.6c-7.54-9.29-12.43-19.28-14.35-29.49a5.44 5.44 0 0 1-.09-.8c-9-2.3-23.23-12.42-36.48-31.1-3.17 1-6.31 2-9.48 2.9l-2.76.71c-.7.17-1.4.33-2.09.47l-1.15.24c-.88.17-1.75.32-2.63.46l-.78.11c-1 .14-1.79.22-2.57.29l-.63-3.16.31 3.19h-.55c-1 .08-2.08.12-3.12.12h-.69c-.83 0-1.51 0-2.18-.09l-1.09-.09c-.6 0-1.22-.12-1.84-.22l-1.08-.16c-.67-.11-1.33-.25-2-.41l-.94-.21c-1-.25-1.94-.54-2.9-.88s-2.19-.83-3.25-1.29l-.57-.27c-1-.45-1.82-.85-2.62-1.26l-.38-.21c-1.1-.59-2-1.09-2.82-1.62-24.33-15.12-32.65-47.33-33-48.69a4.83 4.83 0 0 1 1.6-4.88 4.62 4.62 0 0 1 3.49-1 4.25 4.25 0 0 1 1.59.37 31.47 31.47 0 0 0 3.16 1.26 27.36 27.36 0 0 0 3 .81 19.24 19.24 0 0 0 7.15.21 20.23 20.23 0 0 0 2-.45l.61-.18c.53-.16 1-.35 1.55-.55s.75-.31 1.12-.48.82-.37 1.2-.58c.68-.35 1.37-.74 2-1.17 5.7-3.55 11.29-9.47 16.7-15.19l1.43-1.5c-4-10.72-6.56-18.27-6.67-18.61A170.92 170.92 0 0 1 72.1 283a32.14 32.14 0 0 1-.49-9.36c.49-5.4 1.16-18 1.87-31.4 2.41-45.58 2.7-45.92 4.31-47.81 3.43-4 11.17-7.23 16.66-9.1l-.84-62.92a18.85 18.85 0 0 1 18.59-19.09l62.1-.84a18.71 18.71 0 0 1 5 .64c2.14-11.81 7.81-22.63 16.91-32.22 40.09-42.28 105.3-15 106-14.73a4.38 4.38 0 0 1 1.19.73 50.82 50.82 0 0 1 13.21 1.17 49 49 0 0 1 27.72 18.23 38.59 38.59 0 0 1 7.56 15.7 40.42 40.42 0 0 1-.49 17.47 135.16 135.16 0 0 1-6.23 18.53c-1.5 3.83-2.91 7.44-4.1 11.15a58.76 58.76 0 0 0-3 14A42.87 42.87 0 0 0 339.5 167a68.67 68.67 0 0 0 5.22 13.52c1 2 2.06 4 3.13 6 1.36 2.53 2.76 5.15 4 7.87 3 6.4 4.42 11.8 4.37 17 0 5.47-1.61 11.23-4.89 17.07l-.31.55a118.37 118.37 0 0 1 12.4 3.88c-2.27-3.51-4.09-7.86-3-12.85s4.86-9.14 11.2-12.65a9.47 9.47 0 0 1-1.08-2.39c-1.29-4.64-2.32-10.64 1.23-15.89 2.86-4.22 8-6.82 15.41-7.73-.48-2.46-1.75-9 2.44-14 3.3-3.94 8.9-5.87 17-5.71h.64a13.64 13.64 0 0 1 4.35-8.78c3.88-3.43 9.68-4.43 17.71-3.1a27.45 27.45 0 0 1 6.18 1.8 18.34 18.34 0 0 1 4.94-2.95 36.84 36.84 0 0 1 9.83-10.33 4.78 4.78 0 0 1 5.06-.1 27.49 27.49 0 0 1 9.77 10.1 34.9 34.9 0 0 1 4.43 1.86 63.64 63.64 0 0 1 5.49-10.53A4.81 4.81 0 0 1 481 138c11.76 5.11 16.86 15.63 18.95 25.31 17.72-17.56 32.94-27.79 40.77-32.5a7.87 7.87 0 0 1 9.06.63 7.8 7.8 0 0 1 2.51 8.64c-6.66 19.56-23.36 45.81-31.3 57.7 7.18 14.38 12.51 34.51 14.1 40.88 3.2 2.36 7.67 7.77 12.59 20 4.33 10.71 2.81 24.15-3.87 34.24a33.94 33.94 0 0 1-28.47 15.46C490 308.69 481.28 289 478 281.55c-.29-.68-.53-1.23-.75-1.67-1.86-3.92-9.13-8.36-15.8-6.11a2.5 2.5 0 0 0-1.44 1.48c-2.95 6-.3 22.47 7.1 44.05 9.4 27.4 14.55 48.52 14.6 48.73s6.37 28.11-4.77 58.5a3.52 3.52 0 0 1 4.31 5.4c-3.38 11-29.13 79.2-149.42 81.25q-3.97.07-7.89.07zm-140.68-43.72c18.14 14.82 61.15 38.69 148.46 37.25 98-1.66 130.51-47.92 140.15-68.42l-1 .61a3.2 3.2 0 0 1-4.49-4.21c16.46-32.09 9.19-64.92 9.11-65.25 0-.17-5.13-21-14.43-48.13-5.78-16.87-11.65-39.06-6.78-49a8.82 8.82 0 0 1 5.14-4.72c10.21-3.46 20.65 3.16 23.64 9.42.24.5.51 1.11.82 1.82 3.33 7.62 10.11 23.31 31.34 22.95a27.67 27.67 0 0 0 23.26-12.59c5.54-8.38 6.83-19.49 3.27-28.3-5.5-13.63-9.84-16.91-11-17.59a3.18 3.18 0 0 1-1.53-2c-1.09-4.47-6.89-27.49-14.72-42.34a3.2 3.2 0 0 1 .17-3.28c7.27-10.79 24.88-38 31.6-57.76a1.4 1.4 0 0 0-.47-1.59 1.49 1.49 0 0 0-1.74-.12c-8.21 4.93-24.83 16.16-43.92 36a3.21 3.21 0 0 1-5.5-1.89c-.92-9-4.27-20.61-14.89-25.95a64 64 0 0 0-5.39 11.48 3.21 3.21 0 0 1-4.78 1.62 28.31 28.31 0 0 0-7.43-3.44 3.2 3.2 0 0 1-1.92-1.59 22 22 0 0 0-7.12-8.18 31.75 31.75 0 0 0-7.61 8.61 3.2 3.2 0 0 1-1.68 1.37 12.41 12.41 0 0 0-4.18 2.37 7.86 7.86 0 0 0-.84.9 3.2 3.2 0 0 1-3.87.77 23 23 0 0 0-6.5-2.19c-5.94-1-10.11-.46-12.42 1.58-1.67 1.48-2.45 3.92-2.37 7.46a3.21 3.21 0 0 1-3.72 3.23 22.69 22.69 0 0 0-3.22-.32c-6.13-.12-10.06 1-12 3.41-2.23 2.67-1.44 6.7-1.06 8.64a7.59 7.59 0 0 0 1.47 2.45 3.21 3.21 0 0 1 .25 3.48 3.13 3.13 0 0 1-3.07 1.64 18.51 18.51 0 0 0-3.74 0c-5.68.63-9.48 2.31-11.3 5-2.06 3-1.4 6.89-.37 10.58 0 .16.36 1.07 2.28 3.23a3.21 3.21 0 0 1-1.3 5.13 18.3 18.3 0 0 0-2.33 1c-5.05 2.66-8 5.62-8.68 8.78-.81 3.6 1.21 6.93 3.52 10a8.82 8.82 0 0 0 2.57 1.81 3.2 3.2 0 0 1-.64 5.88 19.61 19.61 0 0 0-4 1.69 3.23 3.23 0 0 1-3.64-.37c-2.2-1.25-7.32-3.32-19-6.22a3.2 3.2 0 0 1-2.13-4.5c.49-1 1.06-2 1.67-3.09l.72-1.28a28.45 28.45 0 0 0 4.09-14c0-4.25-1.16-8.76-3.76-14.24-1.24-2.6-2.58-5.11-3.91-7.59-1.1-2.06-2.2-4.11-3.22-6.18a74.37 74.37 0 0 1-5.69-14.78 48.77 48.77 0 0 1-1.6-15.89 65 65 0 0 1 3.17-15.48c1.25-3.88 2.76-7.75 4.23-11.5a130.68 130.68 0 0 0 6-17.68 34.07 34.07 0 0 0 .46-14.68 32.19 32.19 0 0 0-6.33-13.09 42.61 42.61 0 0 0-24.16-15.93 45.33 45.33 0 0 0-13.2-.93 3.19 3.19 0 0 1-3-1.57c-6.42-2.52-63.29-23.32-98.19 13.49-9.28 9.79-14.45 20.46-15.79 32.62a3.23 3.23 0 0 1-1.69 2.48 3.16 3.16 0 0 1-3 0 12.29 12.29 0 0 0-5.79-1.51l-62.28.84A12.43 12.43 0 0 0 100 122.34l.88 65.28a3.2 3.2 0 0 1-2.25 3.1c-5.94 1.86-13.11 4.82-15.76 7.64-.69 2.45-1.53 16.41-3 44.23-.71 13.41-1.38 26.12-1.87 31.64a26 26 0 0 0 .39 7.5A166.76 166.76 0 0 0 83.93 301c.12.36 3 8.7 7.32 20.33a3.23 3.23 0 0 1-.69 3.34l-2.79 2.93c-5.69 6-11.57 12.23-18 16.21-.82.52-1.64 1-2.47 1.42-.49.26-1 .49-1.5.72s-1 .42-1.44.62c-.66.26-1.34.51-2 .72l-.58.16c-1.1.3-1.95.51-2.82.66a26.17 26.17 0 0 1-9.57-.25 34.82 34.82 0 0 1-3.75-1l-.68-.24C47.58 354.85 56 377 74 388.19c.93.57 1.69 1 2.46 1.42l.54.29c.68.35 1.39.7 2.11 1l.29.14.37.17c.92.41 1.86.79 2.82 1.13.79.28 1.58.51 2.38.71l.45.11.32.07c.55.12 1.08.24 1.62.33l.9.14c.52.08 1 .14 1.53.18l.92.08c.57 0 1.13 0 1.7.06h.71c.88 0 1.78 0 2.68-.11l.76-.07c.66-.06 1.35-.14 2-.23l.91-.13c.8-.12 1.59-.26 2.38-.41l1-.21c.69-.14 1.33-.29 2-.44l2.58-.67c3.57-1 7.14-2.13 10.8-3.34l.62-.21a3.23 3.23 0 0 1 3.65 1.23c14.67 21.48 29.74 30.29 35.78 30.8h.14a4.15 4.15 0 0 1 .57.06 3.28 3.28 0 0 1 3.18 2.82l.17 1.12a3.16 3.16 0 0 1-.7 2.44c2.74 13.14 11.06 26 24.12 37.2a3.21 3.21 0 0 1 .63 4.13 3.17 3.17 0 0 1-3.13 1.53zM82.94 198.17zm397.49-54.88zM227.85 381.62a3.21 3.21 0 0 1-3-2.2c-1.75-5.34-4-12.34-6.31-19.6a3.17 3.17 0 0 1-.14-1.22l.07-.7c0-.12 0-.23.05-.34a3 3 0 0 1-1-2.28V355a3.3 3.3 0 0 1 2.76-3.21 3.12 3.12 0 0 1 3.51 2.11 4.22 4.22 0 0 1 .13 1.81 2.93 2.93 0 0 1 .82 1.3c2.13 6.88 4.19 13.24 6.14 18.91a3.12 3.12 0 0 1 .18 1v1.31a3.2 3.2 0 0 1-2.64 3.27 3.64 3.64 0 0 1-.57.12zm-67.58-70.88a3.21 3.21 0 0 1-2.06-.75 36.62 36.62 0 0 0-23.67-9l-.41-3.2V301a44.7 44.7 0 0 0-8.33.78 3.23 3.23 0 0 1-3.09-1.15c-.74-.93-1.5-1.86-2.26-2.79l-1.52-1.84a3.2 3.2 0 0 1-.27-3.64 126.77 126.77 0 0 0 8.94-18.82 3.23 3.23 0 0 1 3-2.08l38.44-.51a3.48 3.48 0 0 1 2.55 1.2 3.25 3.25 0 0 1 .61 2.76c-2.64 10.92-5.61 22.2-8.81 33.52a3.22 3.22 0 0 1-2.14 2.2 3.4 3.4 0 0 1-.98.11zm-26.14-16.14h.47a42.21 42.21 0 0 1 23.85 7.52c2.31-8.34 4.49-16.63 6.5-24.75l-32.14.43a134.21 134.21 0 0 1-7.52 15.83l.13.16 1.12 1.37a51.13 51.13 0 0 1 7.59-.56zm57.58-57.46a3.21 3.21 0 0 1-3.2-3.16l-.3-22.12a3.22 3.22 0 0 1 .56-1.85l.85-1.25a3.21 3.21 0 0 1-1.49-2.66l-.72-53.93a3.21 3.21 0 0 1 6.16-1.28c1.19 2.82 2.38 5.49 3.48 8 2 4.44 3.7 8.28 4.79 11.55l.1.35a25 25 0 0 1 .74 2.71s.08.37.08.38a39.22 39.22 0 0 1 .6 4.36v.41c-.09 2.13-.75 6.11-1.76 12.12l-.66 4a3.69 3.69 0 0 1-.18.65 55.34 55.34 0 0 1-3.08 6.43 3.18 3.18 0 0 1 1.61 3.28c-1.56 10.38-2.68 19.79-3.4 28.76a3.22 3.22 0 0 1-2.15 2.77l-.89.32a3.05 3.05 0 0 1-1.14.16zm6.08-43zM194 167.93l.35 26.11c.1-.24.21-.48.3-.72l.61-3.64c.86-5.18 1.55-9.3 1.66-11.14a30.92 30.92 0 0 0-.48-3.47 22.42 22.42 0 0 0-.65-2.44c-.45-1.46-1.06-3.02-1.79-4.7zm140 63.63a3.05 3.05 0 0 1-.67-.07c-2.76-.58-5.49-1.14-8.13-1.65a3.21 3.21 0 0 1-2.49-2.38c-2.54-10.24.07-14.52 3.74-19.06 2-2.43 3.83-4.72 4.22-8.85.3-3.13-.35-7.25-1.93-12.24a3.2 3.2 0 0 1 5.45-3.09l2.35 2.71c4.48 5.12 9.11 10.42 9.6 17.41.69 7.35-2.91 14.32-6.65 20.82l-1 1.72c-.57 1-1.14 2-1.7 3a3.21 3.21 0 0 1-2.73 1.68zm-5.5-7.6l3.85.78.61-1.05 1-1.7c3.36-5.84 6.33-11.55 5.81-17.11a14.49 14.49 0 0 0-2.57-6.88 19.91 19.91 0 0 1-.09 2.21c-.58 6.05-3.37 9.5-5.61 12.27-2.38 2.88-4.15 5.07-2.94 11.52zM98 212.12a3.22 3.22 0 0 1-3.14-2.57 22.05 22.05 0 0 1-.41-2.58 3.19 3.19 0 0 1 1.42-2.86 6.13 6.13 0 0 1 .55-.33 3.18 3.18 0 0 1 3.16 0 3.22 3.22 0 0 1 1.6 2.72v2.33a3.21 3.21 0 0 1-2.87 3.23zm1.52-2.73z" class="cls-2"/>
    <circle cx="315.74" cy="334.18" r="241.23" class="cls-3"/>
    <path d="M315.74 580.22c-135.67 0-246-110.37-246-246s110.37-246 246-246 246 110.37 246 246-110.34 246-246 246zm0-482.47c-130.37 0-236.43 106.06-236.43 236.43s106.06 236.43 236.43 236.43 236.42-106.06 236.42-236.43S446.1 97.75 315.74 97.75z" class="cls-2"/>
    <circle cx="315.74" cy="334.18" r="241.23" fill="url(#linear-gradient)"/>
    <circle cx="315.74" cy="334.18" r="241.23" fill="none" stroke="url(#linear-gradient-2)" stroke-miterlimit="10" stroke-width="3.2px"/>
    <path d="M519.69 322c-11.33 9.11-41.57 15-41.57 15-24.51-1.23-37.48-11.23-37.48-11.23-17.73 10.59-49.13 14.48-49.13 14.48l-316.82 1.44c4 129.75 110.34 233.72 241.05 233.72C449 575.41 557 467.41 557 334.18c0-1.88-.1-3.74-.14-5.62-4.69 1.77-9.18 3-12.41 2.86-10.72-.42-24.76-9.42-24.76-9.42z" class="cls-6"/>
    <path d="M386.62 516c-25.4 20.66-65 21.45-91.17 1.82-6.62-5-13.16-11.34-21.43-11.61-5.6-.19-10.82 2.53-15.93 4.82a120.63 120.63 0 0 1-98.28-.35c-4.24-1.94-8.57-4.15-13.1-4.86 1.43 1.57 2.93 3.07 4.4 4.61a242.24 242.24 0 0 0 36.78 28.31c5-.63 9.89-1.4 14.71-2.32 23.65-4.55 48.07-10.94 71.42-5 11.26 2.84 21.67 8.44 32.88 11.49 28.7 7.7 61.6-3.38 79.72-26.91z" class="cls-7"/>
    <path d="M153.19 509.16a101.77 101.77 0 0 0 60.13 12.07 99.48 99.48 0 0 0 15.12-2.94 152.94 152.94 0 0 0 14.65-5.07c4.84-1.92 9.66-4 14.58-5.91 2.47-.95 5-1.87 7.48-2.73a46.58 46.58 0 0 1 8-2.15 20.33 20.33 0 0 1 4.43-.21 17.08 17.08 0 0 1 4.45.9 31.24 31.24 0 0 1 7.48 4c1.11.78 2.17 1.57 3.22 2.33l3.15 2.18c2.14 1.38 4.31 2.71 6.57 3.91a92.53 92.53 0 0 0 28.93 9.75 82.45 82.45 0 0 0 15.29 1 69.92 69.92 0 0 0 15.18-2 63.42 63.42 0 0 0 14.31-5.29 59.1 59.1 0 0 0 12.52-8.87l.06-.05a1 1 0 0 1 1.46.06 1 1 0 0 1 .27.73 11.24 11.24 0 0 0 2.08 6.68 18.58 18.58 0 0 0 5.41 5 33.88 33.88 0 0 0 6.86 3.23 43.83 43.83 0 0 0 7.44 1.88 38 38 0 0 1-14.89-4.09 19.29 19.29 0 0 1-6.17-5 13.15 13.15 0 0 1-2.83-7.65l1.79.74a59.94 59.94 0 0 1-27.46 16.08 78.73 78.73 0 0 1-32 1.85 90.58 90.58 0 0 1-30.52-9.87c-2.38-1.24-4.69-2.64-7-4.08-1.12-.75-2.24-1.52-3.33-2.28l-3.17-2.26a26.23 26.23 0 0 0-6.29-3.48 13.47 13.47 0 0 0-6.64-.54 43 43 0 0 0-7.19 1.92c-2.45.81-4.88 1.69-7.31 2.62l-14.68 5.63a146.82 146.82 0 0 1-15.18 4.9 103.34 103.34 0 0 1-15.81 2.56 96.19 96.19 0 0 1-60.39-15.55z" class="cls-8"/>
    <path d="M556.83 328.56c-4.69 1.77-9.18 3-12.41 2.86-10.69-.42-24.73-9.42-24.73-9.42-11.33 9.11-41.57 15-41.57 15-24.51-1.23-37.48-11.23-37.48-11.23-17.73 10.59-49.13 14.48-49.13 14.48h-12.54l-20.83 25.47a112.43 112.43 0 0043.72-12.14c9.65-5 19.39-11.54 30.22-10.86 7.22.45 13.78 4.11 20.28 7.28 9.11 4.45 19 8.15 29.12 7.46 10.65-.73 20.39-6.24 30.88-8.16 14.64-2.66 29.42 1.7 43.64 6.58.64-7.16 1-14.38 1-21.7 0-1.88-.13-3.74-.17-5.62zM378.84 415.69s47.21-4.51 57.74-12.59 27 11.69 45.62 0 20.64-15 27.35-15.43 24.84 9.92 35.13 5.8-11.17-3.17-24.68-10.07-14.76-6.8-18.54-3.23-14.63 15.14-32.12 14.83-26.72-9.71-38.73-3.14-51.77 23.83-51.77 23.83z" class="cls-7"/>
    <path d="M544.68 388.39a45.44 45.44 0 0 1-30.68-8.75c-2.23-1.67-4.72-3.65-7.46-3.14-2.08.39-3.6 2.12-5 3.67-14.27 15.24-38.81 19.7-57.52 10.45-2.76-1.36-5.61-3-8.67-2.75-2.71.26-5 2-7.2 3.6-28.61 20.73-68.37 24.95-100.69 10.67" class="cls-9"/>
    <path d="M519.69 322c-11.33 9.11-41.57 15-41.57 15-24.51-1.23-37.48-11.23-37.48-11.23-17.73 10.59-49.13 14.48-49.13 14.48l-316.82 1.44c4 129.75 110.34 233.72 241.05 233.72C449 575.41 557 467.41 557 334.18c0-1.88-.1-3.74-.14-5.62-4.69 1.77-9.18 3-12.41 2.86-10.72-.42-24.76-9.42-24.76-9.42z" class="cls-9"/>
    <path d="M372.52 99.74a14.52 14.52 0 0 0-1.32 28.86c36.67 5.53 68.31 23 81 30.22 14.44 8.22 11.23 29.77-19 14.81-17.6-8.71-41.19-12.3-57.82-13.78a18.62 18.62 0 0 0-3.91 37c13.28 1.6 34.35 5.3 62.18 13.84 50.31 15.45 93.79 78.69 73.56 189.38C477.52 562.77 322.71 575 316 575.41c133.11-.14 241-108.08 241-241.23 0-113.66-78.66-208.9-184.48-234.44z" class="cls-6"/>
    <path d="M539.28 245.39C495.62 139 410.89 108.3 376.76 100.05a14.53 14.53 0 00-17.62 11.3 14.25 14.25 0 00-.14 4.82c37.8 3 102.44 18 147.71 81.42 20 28 33.94 58.15 43.6 86.64a183.54 183.54 0 00-11.03-38.84zM508.6 306.73c5 26 5.26 57.15-1.36 93.36-10.58 57.92-37 96.75-67 122.78 32.36-24.88 69.71-63 78.3-110.71 8.87-49.16-.21-84.16-9.94-105.43zM389.26 555.41h.05z" class="cls-7"/>
    <path d="M372.52 99.74a14.52 14.52 0 0 0-1.32 28.86c36.67 5.53 68.31 23 81 30.22 14.44 8.22 11.23 29.77-19 14.81-17.6-8.71-41.19-12.3-57.82-13.78a18.62 18.62 0 0 0-3.91 37c13.28 1.6 34.35 5.3 62.18 13.84 50.31 15.45 93.79 78.69 73.56 189.38C477.52 562.77 322.71 575 316 575.41c133.11-.14 241-108.08 241-241.23 0-113.66-78.66-208.9-184.48-234.44z" class="cls-9"/>
    <path fill="#f17a16" d="M326.54 232.4s-7-10.93-1.46-18.78 10.08-13.5 2.09-34.35 7-76.57 7-76.57L313 66.89s-32-23.26-79-12.4-52.11 49.68-50.51 66.79 16.59 48.52 16.7 56.72-17.1 76.79-2.79 123.25 30.43 60 31.29 66.12 1.54 10.16-2.41 13.86-15.21 16.65 4.72 27.37 29.59-23.05 29.59-23.05l2.61-152.14z"/>
    <path d="M326.54 232.4s-7-10.93-1.46-18.78 10.08-13.5 2.09-34.35 7-76.57 7-76.57L313 66.89s-32-23.26-79-12.4-52.11 49.68-50.51 66.79 16.59 48.52 16.7 56.72-17.1 76.79-2.79 123.25 30.43 60 31.29 66.12 1.54 10.16-2.41 13.86-15.21 16.65 4.72 27.37 29.59-23.05 29.59-23.05l2.61-152.14z" class="cls-11"/>
    <path d="M195.37 77.82c7.64-10.14 19.74-19 38.59-23.33a106.86 106.86 0 0 1 58.2 2.51c-4.64-.52-55.1-5.52-94.35 19.34-.81.5-1.65 1-2.44 1.48z" class="cls-12"/>
    <path fill="#eccd65" d="M205.13 323.12l15.53-93.25c21.55-24 15.68-76.9 15.68-76.9S247.9 91.34 263.8 90s20.25-11.06 41.89-8.27 23.72 35.22 21 49-9.73 25.93.48 48.57.76 30.19-2.78 35.46 5.88 55.64 5.88 55.64l-75.33 144.1-24.43-3.07-3-5.85s-11.51-6.43-7-14.68 13.18-15.25 6.14-27.15-19.75-29.75-21.52-40.63z"/>
    <path d="M213.77 427.31c5.43-10 16-18.52 7.46-33s-23.87-36.13-26-49.3l4.52-27.1 8.43-5.41L221.6 342s-4.94 33.38 7.77 50.65c8.47 11.51-1.74 21.75-.35 28s25.29 15.93 25.29 15.93l-25.17 16-3.12-.4-3.7-7.1s-13.98-7.76-8.55-17.77zM321.86 247.89s-17.65-22.67-6.36-39.72 6-50.7 6-50.7l.3-.4c.05 6.3 1.42 13.47 5.35 22.2 10.21 22.65.76 30.19-2.78 35.46-1.6 2.38-.55 14 1.07 26z" class="cls-11"/>
    <path d="M325.44 175s7.78 14.93 6.85 24.71c-1.12 11.86-13.13 10.15-7.52 29.31" class="cls-14"/>
    <path d="M180.15 342.68s-11.3-43-45.59-43.27c-45.88-.38-54.95 61.68-92 44.48 0 0 9.91 39.48 39.57 50s61.5-29.86 88.15 5" class="cls-15"/>
    <path d="M180.15 342.68s-11.3-43-45.59-43.27c-45.88-.38-54.95 61.68-92 44.48 0 0 9.91 39.48 39.57 50s61.5-29.86 88.15 5" class="cls-16"/>
    <path d="M69.35 342.25c8.53.71 20.76-.65 33.56-10.07 23.57-17.34 50.35-25 67.09-7.59 4.29 4.45 7.3 12.6 9.42 22.27l-9.18 52c-26.65-34.82-58.49 5.53-88.15-5s-39.57-50-39.57-50c10.78 5.03 19.19 3.31 26.83-1.61z" class="cls-17"/>
    <path d="M69.35 342.25c8.53.71 20.76-.65 33.56-10.07 23.57-17.34 50.35-25 67.09-7.59 4.29 4.45 7.3 12.6 9.42 22.27l-9.18 52c-26.65-34.82-58.49 5.53-88.15-5s-39.57-50-39.57-50c10.78 5.03 19.19 3.31 26.83-1.61z" class="cls-9"/>
    <path d="M82.09 393.87c-29.66-10.5-39.57-50-39.57-50a32.83 32.83 0 0 0 7.31 2.44c8.17 8.17 23.53 17.13 47.9 7.73 39.32-15.16 39.88-34.31 61.16-11.38 9.63 10.38 9.77 31.37 7.05 51.25-25.74-25.71-55.77 9.89-83.85-.04z" class="cls-18"/>
    <path d="M170.24 398.83c-26.65-34.82-58.49 5.53-88.15-5-16.87-6-27.34-21.31-33.24-33.44 8.84 6.9 22 12.69 41 12 44.82-1.7 66.69-17.85 81.56 6.87.64 1.06 1.2 2.16 1.74 3.28z" class="cls-19"/>
    <path d="M170.24 398.83c-26.65-34.82-58.49 5.53-88.15-5-16.87-6-27.34-21.31-33.24-33.44 8.84 6.9 22 12.69 41 12 44.82-1.7 66.69-17.85 81.56 6.87.64 1.06 1.2 2.16 1.74 3.28z" class="cls-20"/>
    <path d="M170.24 398.83c-26.65-34.82-58.49 5.53-88.15-5-16.87-6-27.34-21.31-33.24-33.44 8.84 6.9 22 12.69 41 12 44.82-1.7 66.69-17.85 81.56 6.87.64 1.06 1.2 2.16 1.74 3.28z" class="cls-1"/>
    <path d="M82.09 393.87c-29.66-10.5-39.57-50-39.57-50a32.83 32.83 0 0 0 7.31 2.44c8.17 8.17 23.53 17.13 47.9 7.73 39.32-15.16 39.88-34.31 61.16-11.38 9.63 10.38 9.77 31.37 7.05 51.25-25.74-25.71-55.77 9.89-83.85-.04z" class="cls-21"/>
    <path d="M120.7 294l33 42.69 22.3-81.95s1.21-17.94 27.12-21.63a313.41 313.41 0 0 0 43.22-9L243 181.32 294.55 194l9 30.35s50.71 8.16 62.11 15 11 54 14.43 78.51 3.28 98.49 3.28 98.49a179.62 179.62 0 0 1 6.05 20.26 305.23 305.23 0 0 1 8.43 53.39 14 14 0 0 0-5.68 1.92 25.1 25.1 0 0 0-2.4 1.76c-3.67.53-7.51 1-11.54 1.34-7.37.64-14.23.83-20.46.76l-8.94-56.14s-3.34 11.7-6.55 24.78a282.56 282.56 0 0 0-5.74 33 405.74 405.74 0 0 1-53.64 5.08 198.22 198.22 0 0 1-31.75-4.33c-17.26-3.94-32.18-11.4-47.89-18.8 8.55-17.79 24.2-45.19 43.8-56.11l-35.5-102.35-19.48 70.59s-20.35 27.7-28.47 28.77-21.28 3.89-43.17-31C100.18 357 77.18 283.63 77.18 283.63z" class="cls-22"/>
    <path d="M302.25 220c-10.84-.58-13.78-8-29.18-12.1-14.83-3.91-28.17-14.68-29.17-15.49l-.9-11.09L294.55 194z" class="cls-23"/>
    <path d="M243 181.32L294.55 194l9 30.35s50.71 8.16 62.11 15" class="cls-24"/>
    <path d="M419.2 358.59s-28.15 45.75-58.79 51.75l7.9-53.94L398 338.2z" class="cls-25"/>
    <path d="M322.49 406.09s2.33 19.45-7.82 36.65-14.38 31.11-13.77 36.12 7.45-17.76 12.93-26.23 14.3-27.89 8.66-46.54z" class="cls-23"/>
    <path d="M176 254.74s1.21-17.94 27.12-21.63c8.48-1.21 16-2.59 22.37-3.91l1.35.62s-36.52 12.39-41.87 21-21.14 65.27-28.87 77.07z" class="cls-26"/>
    <path d="M150.26 332.16c-10.4-2.75-36.84-29.65-36.84-29.65 2.82-1.82 5.39-6.8 6.33-8.77l1 .23zM123.66 394.22c11.23 8.63 31.07 19.63 34.34 18.77 3.94-1 25.15-21.3 28.2-27.24s14.05-41.75 17-51.84 12-21.91 12-21.91l-2 13.52-1.58-4.58-19.48 70.59s-20.35 27.7-28.47 28.77c-7.78 1.01-20.04 3.59-40.01-26.08z" class="cls-23"/>
    <path d="M216.23 308.16s4.17 9 12.29 14.73l-13.58 6.28-2-7.21zM353.45 362.35a165.53 165.53 0 015 32.17c1 18.09-6.91 30.85-7.42 41.22 0 0 17.38-38.67 16.57-70.46zM212.17 483.6l-8.91-4.2c8.55-17.79 24.2-45.19 43.8-56.11l-22.27-64.2 6.42-5.94 47 19.55s-.85 37.64-2.64 46.19c-1.57 7.02-37.99 21.83-63.4 64.71z" class="cls-23"/>
    <path d="M218.09 110.59s.15-23.13 38.94-33.06 50.06 15.15 53.86 30 2.23 15.83 8.28 25.22 5.91 14.59 3.45 32.49-1.78 29.88-6.18 35.8-22.83 6.85-42.15 2.7-40.29-8.47-48-35.08-8.2-58.07-8.2-58.07z" class="cls-22"/>
    <path d="M290.53 124.56c-.06-1-3.13 12.79 2.07 17.44s8.89 2.5 10.81 4.82c0 0-.32-1.8-4.27-4.37s-7.87-4.36-8.61-17.89z" class="cls-26"/>
    <path d="M226.32 168.64c-6.85-23.75-8-51.35-8.2-57l.65-5a29.15 29.15 0 013.8-8.18l8 .91s20.92 53.34 5.74 87.72a44.31 44.31 0 01-9.99-18.45zM303.6 146.34s-1 3.65-6.72 4.25-8 3.19-6.12 4.8 11.24-.04 12.84-9.05z" class="cls-23"/>
    <path d="M293.24 87.36c-30.38 5.91-39.79.57-39.79.57L281.58 76c19.47 3.67 26.48 20.43 29.31 31.5 3.79 14.83 2.23 15.83 8.28 25.22s5.91 14.59 3.45 32.49-1.78 29.88-6.18 35.8c-1.25 1.67-3.6 2.94-6.78 3.82 5.41-11.44 6.37-18.79 8.32-34.15 2.18-17.24 2.15-29.46-4.8-38.95-3.21-4.37-6.06-3.32-6.06-3.32l3.37-8.6c-3.73-19.58-17.52-10-17.52-10l-1.13-3.85 9.87-6.71c-1.28-6.05-8.47-11.89-8.47-11.89z" class="cls-23"/>
    <path d="M218.09 110.59s.15-23.13 38.94-33.06 50.06 15.15 53.86 30 2.23 15.83 8.28 25.22 5.91 14.59 3.45 32.49-1.78 29.88-6.18 35.8-22.83 6.85-42.15 2.7-40.29-8.47-48-35.08-8.2-58.07-8.2-58.07z" class="cls-24"/>
    <path d="M278.67 130.71s-2-6.4-3.36-7.15-20.41-8.87-24.31 15.13c0 0 11.23-16.75 27.67-7.98z" class="cls-27"/>
    <path d="M270 128.75s-1.75-7.09-7.55-6.52c0 0 2.47 3.58 2.56 6.39l5 .66" class="cls-26"/>
    <path d="M243.55 194.61s3.93 11.54 2.75 30.7c0 0-11 3.64-32.24 6.52s-33.36-.26-42 36.75-18.41 66.77-18.41 66.77" class="cls-24"/>
    <path d="M368.31 356.4s1.65 33.91-14.51 72.47-17.26 68.58-17.26 68.58" class="cls-28"/>
    <path d="M202 358.59s1.74 12.23 19.26 35.76c16 21.49-26.15 31.39 1.09 50.78" class="cls-14"/>
    <path d="M225 345.58a41.48 41.48 0 0 0-3.26 22.42 50.91 50.91 0 0 0 2.66 11 65 65 0 0 0 4.85 10.27l1.5 2.43c.51.8 1.06 1.58 1.59 2.37A14.92 14.92 0 0 1 235 400a12.72 12.72 0 0 1-.65 6.51 45.4 45.4 0 0 1-2.55 5.47 18.06 18.06 0 0 0-2 5 7.3 7.3 0 0 0 0 2.51 7.49 7.49 0 0 0 .92 2.41 16.82 16.82 0 0 0 3.67 4.19 48.83 48.83 0 0 0 4.63 3.5 35.09 35.09 0 0 1-5.25-2.68 17 17 0 0 1-4.53-4 9.4 9.4 0 0 1-1.45-2.9 8.72 8.72 0 0 1-.29-3.29 19.87 19.87 0 0 1 1.84-5.93 45.44 45.44 0 0 0 2.16-5.21 10.49 10.49 0 0 0 .39-5 9.33 9.33 0 0 0-.8-2.35 10.32 10.32 0 0 0-.63-1.12l-.76-1.15c-.54-.83-1.1-1.65-1.64-2.49l-1.53-2.56a55.39 55.39 0 0 1-4.9-10.91 46.54 46.54 0 0 1-2.26-11.75 41.61 41.61 0 0 1 1-11.86 35.34 35.34 0 0 1 1.82-5.64 26.58 26.58 0 0 1 2.81-5.17z" class="cls-29"/>
    <path d="M212.64 320.86s15.44 59.25 34.42 102.43c0 0-23.38 12.58-43.93 56" class="cls-24"/>
    <path d="M180.16 369.13a15 15 0 0 0-1.48-6.11 34.37 34.37 0 0 0-3.18-5.52 56.38 56.38 0 0 0-8.67-9.4c-.76-.75-1.61-1.41-2.43-2.1s-1.61-1.4-2.48-2l-5.17-4-2.61-2-2.5-2.16c-1.7-1.41-3.26-3-4.86-4.46s-3.11-3.11-4.68-4.66-3-3.19-4.51-4.8a110.87 110.87 0 0 1-8.17-10.3q-3.76-5.4-7-11.1a96.15 96.15 0 0 1-5.82-11.78.25.25 0 0 1 .13-.32.26.26 0 0 1 .28.07c5.6 6.73 10.88 13.55 16.28 20.25 2.67 3.37 5.35 6.72 8 10.12 1.34 1.67 2.67 3.36 4 5s2.77 3.27 4.25 4.82 2.91 3.14 4.48 4.59l2.31 2.23 2.41 2.09 5 4.25c.85.69 1.63 1.48 2.44 2.22s1.63 1.48 2.37 2.29a58.53 58.53 0 0 1 8.24 10.32 34.23 34.23 0 0 1 2.89 6 15.47 15.47 0 0 1 1 6.55.25.25 0 0 1-.27.22.25.25 0 0 1-.21-.25z" class="cls-30"/>
    <path d="M348.48 442.74a467.59 467.59 0 0 0 9.29 53.07" class="cls-28"/>
    <path d="M263.18 278c1.83-17.47-31.44-49.09-31.44-49.09l14.56-3.58s37.1 38.37 56.4 34.82c13.77-2.54.82-35.81.82-35.81l12 1.87s14.69 30.57 44.85 39.23L353 265c9.13-.11 25.7 2.09 38.32 17.29 16.88 20.32 14.31 62.08-22.8 72.67l-.44 12.46s-2 1-13.65-.46c-11.95-1.49-5.47-8.78-49 4.38-40.77 12.33-74.33 10.22-74.33 10.22-8.28-23.08-16.19-52.39-16.19-52.39 33.03-13.47 46.01-29.62 48.27-51.17z" class="cls-2"/>
    <path d="M391.33 282.29a47.16 47.16 0 0 0-31.12-16.88h.15c-1.5-.43-2.92-.95-4.35-1.48-1.42 7.16-2.19 19.77 5.77 31.7 12 18 24.94 34.85 22.92 50.78 0 .22 0 .38-.05.58a41.46 41.46 0 0 0 4.65-4.16c3.22-6 7.6-15.38 11.5-24.1 1.91-13.26-1.72-27.11-9.47-36.44z" class="cls-25"/>
    <path d="M274.3 290.56s47.37-13.87 63.65 24.77c0 0 3-22.21-19.6-33.32s-40.41 2.63-44.05 8.55z" class="cls-2"/>
    <path d="M397.85 293.41c8.66 21.71 1.88 52.65-29.32 61.55l-.44 12.46s-2 1-13.65-.46c-.5-.07-1-.14-1.4-.22a30.53 30.53 0 01-14.15-12.36c72.74-4.3 59.29-59.44 58.96-60.97zM258.43 295.15l.56-.4c2.1 63.57 63.5 59.22 63.5 59.22-12.2 16.45-42.17 14.18-42.17 14.18.25 2.38 2 5.3 4.6 8.41-30.91 6.43-53.79 5-53.79 5-8.28-23.08-16.19-52.39-16.19-52.39 23.61-9.63 36.97-20.64 43.49-34.02z" class="cls-25"/>
    <path d="M361.78 265.62c-30.16-8.66-46.27-39.43-46.27-39.43l-12-1.87s13 33.27-.82 35.81c-19.3 3.55-56.4-34.82-56.4-34.82l-14.56 3.58S265 260.51 263.18 278c-2.26 21.57-15.24 37.72-48.24 51.19 0 0 7.91 29.31 16.19 52.39 0 0 33.18.76 74.33-10.22 37.91-10.11 37-5.87 49-4.38 11.6 1.44 13.65.46 13.65.46s.26-7.6.11-12.36" class="cls-31"/>
    <path fill="#f16f96" d="M278 178.58a28 28 0 0 0 12.66-9.3c5.62-7.8 11-5 11-5a9.61 9.61 0 0 1 4.36-2.12c3.31-.45 6.94.88 6 6a10.21 10.21 0 0 1-2 4.61s3.17 5.28.75 9.25c-3.43 5.77-17.94 9.49-32.77-3.44z"/>
    <path d="M302.14 183.51s-1.57-2.51-9.2-1.13 2.52 3.41 9.2 1.13z" class="cls-33"/>
    <path fill="#dd4a7b" d="M284.79 175c3.47 1.53 12.29 4.68 18.56.42 5.53-3.76 4.67-9.92 3.62-13.34 3-.11 6 1.4 5.15 6.06a10.21 10.21 0 0 1-2 4.61s3.17 5.28.75 9.25a7.88 7.88 0 0 1-1.48 1.74c0-6.55-9.14-6.8-18.23-5.23a35.73 35.73 0 0 1-12.57-.15 29.1 29.1 0 0 0 6.2-3.36z"/>
    <path d="M278 178.58a31.59 31.59 0 0 0 6.21-3.64 27.33 27.33 0 0 0 5.05-5l1.05-1.45a18 18 0 0 1 1.19-1.49 14.09 14.09 0 0 1 2.84-2.59 8.35 8.35 0 0 1 7.88-1.08l-1.19.15a11.94 11.94 0 0 1 2.34-1.59 8.23 8.23 0 0 1 2.78-.88 8.93 8.93 0 0 1 2.91.08 5.77 5.77 0 0 1 2.81 1.43 5.11 5.11 0 0 1 1.48 2.88 9.38 9.38 0 0 1 0 2.95 12.87 12.87 0 0 1-.8 2.7 10.17 10.17 0 0 1-1.5 2.51l.13-1.44a14.59 14.59 0 0 1 1.25 2.93 11.9 11.9 0 0 1 .55 3.16 8 8 0 0 1-.55 3.32 6.07 6.07 0 0 1-.85 1.49 6.89 6.89 0 0 1-1.09 1.25 14.29 14.29 0 0 1-5.43 3.09 21.41 21.41 0 0 1-6 .85 26.48 26.48 0 0 1-11.5-2.85l-1.31-.66c-.44-.23-.84-.51-1.26-.76a23.54 23.54 0 0 1-2.44-1.63l-1.17-.87a11 11 0 0 1-1.15-.94c-.81-.66-1.5-1.33-2.23-1.92zm0 0a53.09 53.09 0 0 0 4.8 3.23 24.56 24.56 0 0 0 2.52 1.37c.43.21.85.44 1.29.62l1.33.53a27 27 0 0 0 11 2 20.78 20.78 0 0 0 5.39-1 12 12 0 0 0 4.49-2.7 4.69 4.69 0 0 0 .79-.95 4.34 4.34 0 0 0 .57-1 5.6 5.6 0 0 0 .36-2.36 11.43 11.43 0 0 0-1.51-4.92 1.25 1.25 0 0 1 .12-1.41 8.6 8.6 0 0 0 1.09-1.85 10.26 10.26 0 0 0 .66-2.17c.25-1.47.15-2.93-.71-3.7a4.88 4.88 0 0 0-3.81-1 8 8 0 0 0-4 1.81 1.09 1.09 0 0 1-1.17.14 4.86 4.86 0 0 0-1.37-.37 6.18 6.18 0 0 0-1.55 0 8 8 0 0 0-3 1.09 13.69 13.69 0 0 0-2.62 2.15c-.8.83-1.5 1.76-2.33 2.73a25.67 25.67 0 0 1-5.68 4.73 26.49 26.49 0 0 1-6.66 3.03z" class="cls-35"/>
    <path d="M310.1 172.78a12.51 12.51 0 0 1-3.27 2.7 25.11 25.11 0 0 1-3.84 1.85 35.67 35.67 0 0 1-8.23 2c-1.39.22-2.8.28-4.2.37s-2.81 0-4.21 0-2.79-.21-4.18-.37-2.76-.45-4.13-.78c1.4-.21 2.78-.31 4.16-.42s2.75-.27 4.11-.34 2.73-.24 4.08-.4 2.71-.26 4.05-.48a73.44 73.44 0 0 0 8-1.43 31.94 31.94 0 0 0 7.66-2.7z" class="cls-35"/>
    <path d="M291 119.41a64.8 64.8 0 0 0 1 10.59 20.58 20.58 0 0 0 1.49 4.75 9.78 9.78 0 0 0 2.77 3.58c1.4 1.08 2.81 2.14 4.24 3.21.71.54 1.43 1.07 2.16 1.68a11.6 11.6 0 0 1 1.13 1 4.15 4.15 0 0 1 1 1.69 3.73 3.73 0 0 1 0 1.94 6.26 6.26 0 0 1-.59 1.49 12.54 12.54 0 0 1-1.7 2.37 10.83 10.83 0 0 1-4.6 3.11 14.22 14.22 0 0 0 3.31-4.06 11.4 11.4 0 0 0 1-2.27 2.58 2.58 0 0 0 .14-1.79 5.06 5.06 0 0 0-1.43-1.21l-2.22-1.44c-1.51-1-3-2-4.45-3.17a11.32 11.32 0 0 1-2.16-2.26l-.46-.63c-.13-.22-.24-.45-.36-.68a10 10 0 0 1-.64-1.37 18 18 0 0 1-1.16-5.65 27.81 27.81 0 0 1 1.54-10.9z" class="cls-30"/>
    <path d="M272.24 106.48s-.38 3.17-2.65 3.45-16.45-2.29-25.23 11.69c0 0 .35-18.43 27.88-15.14zM290.55 102.53s.13 2.88 1.29 3.4 6.54-4.48 9.93-5.31a7.33 7.33 0 015.91 1.16s-1.87-5-6.29-4.31-10.84 5.06-10.84 5.06z" class="cls-36"/>
    <path fill="#91432d" d="M259.79 216c2.12 2 4.09 3.93 6.08 5.89l5.9 5.85c2 1.94 3.93 3.86 5.94 5.78s4.06 3.79 6.06 5.9a32.6 32.6 0 0 1-7.67-3.9 45.08 45.08 0 0 1-6.63-5.46 47.4 47.4 0 0 1-5.56-6.52 33.83 33.83 0 0 1-4.12-7.54z"/>
    <path d="M352.11 357.41a76 76 0 0 0 17.12-4.41 45.92 45.92 0 0 0 15.2-7.93 39 39 0 0 0 6-6.07c.94-1.08 1.69-2.31 2.52-3.48.38-.6.72-1.23 1.09-1.85l.53-.93.47-1a44.73 44.73 0 0 0 4.47-16.53 48.45 48.45 0 0 0-1.79-17.11 49.37 49.37 0 0 0-3.18-8 42.64 42.64 0 0 0-4.75-7.12 45.6 45.6 0 0 0-13.29-10.84 51.53 51.53 0 0 0-16.18-6.79 46.27 46.27 0 0 1 17.72 3.91A48.8 48.8 0 0 1 392.33 281a44.93 44.93 0 0 1 5.15 7.72 52.37 52.37 0 0 1 3.42 8.58 51.89 51.89 0 0 1 1.91 18.27 48.05 48.05 0 0 1-4.8 17.75l-.51 1-.58 1c-.39.67-.77 1.34-1.17 2a43.93 43.93 0 0 1-2.73 3.76 42.33 42.33 0 0 1-6.53 6.58 50.56 50.56 0 0 1-16.29 8.54 61.41 61.41 0 0 1-18.09 1.21z" class="cls-38"/>
    <path d="M275.86 129.38s3.32 1.06 4.16 2.64c0 0-.77 7.34-12.71 9.89s-15.5-2.49-15.5-2.49a18.22 18.22 0 0 1 5.83-7.55c7.66-5.74 17.11-2.87 18.22-2.49z" class="cls-3"/>
    <g clip-path="url(#clip-path)">
        <circle cx="258.65" cy="136.47" r="7.31" class="cls-40"/>
        <circle cx="258.65" cy="136.47" r="3.83" class="cls-41"/>
    </g>
    <path d="M273.91 139.53a18.36 18.36 0 0 1-5.17 2.61 21.22 21.22 0 0 1-5.77 1.05 16.86 16.86 0 0 1-5.85-.83 13.34 13.34 0 0 1-5-3 26.41 26.41 0 0 0 5.33 1.76c.44.12.9.14 1.35.22a10.47 10.47 0 0 0 1.36.15l1.37.08h1.38a44.36 44.36 0 0 0 11-2.04z" class="cls-42"/>
    <path d="M278.59 129.67c-.74-.93-1.38-1.9-2-2.85s-1.25-1.93-1.89-2.8l.21.21a20.94 20.94 0 00-2.56-1.25 20.15 20.15 0 00-2.72-.9 11.31 11.31 0 00-5.75 0 6.83 6.83 0 012.84-1.26 9.92 9.92 0 013.17-.08 13.42 13.42 0 013.05.79 14.94 14.94 0 012.83 1.41.76.76 0 01.2.2 19.48 19.48 0 011.61 3.19 21.86 21.86 0 011.01 3.34zM253.69 130.71a10.4 10.4 0 01-.5 1.8c-.19.55-.41 1.07-.64 1.58s-.46 1-.74 1.52a18.22 18.22 0 01-.9 1.6 3.63 3.63 0 01-.33-1.93 5.17 5.17 0 01.48-1.86 5.59 5.59 0 011.05-1.58 4.15 4.15 0 011.58-1.13z" class="cls-30"/>
    <path d="M280 132a15.25 15.25 0 0 0-8.63-2.13 25.19 25.19 0 0 0-8.32 2 26 26 0 0 0-7.47 4.23c-1.13.92-2.16 2.07-3.52 3.22a13 13 0 0 1-1.11.79 5.94 5.94 0 0 1-1.3.56 4.84 4.84 0 0 1-1.34.2 6.48 6.48 0 0 1-1.28-.17 6 6 0 0 0 2-1.23 6.54 6.54 0 0 0 1.23-1.73 32.81 32.81 0 0 1 2.52-4.26 17.66 17.66 0 0 1 3.86-3.71 22.49 22.49 0 0 1 4.64-2.46 19 19 0 0 1 10.46-1.24c3.53.64 6.92 2.8 8.26 5.93z" class="cls-42"/>
    <path d="M296.44 122s-1.69 4.68-1.64 6.17c0 0 3.13 5 11.41 1.8s8.65-8.31 8.65-8.31-11.52-5.47-18.42.34z" class="cls-3"/>
    <g clip-path="url(#clip-path-2)">
        <ellipse cx="300.43" cy="126.25" class="cls-40" rx="5.74" ry="6.46" transform="rotate(-10.8 300.474 126.278)"/>
        <ellipse cx="300.43" cy="126.25" class="cls-41" rx="2.97" ry="3.34" transform="rotate(-10.8 300.474 126.278)"/>
    </g>
    <path d="M301.28 131a29 29 0 0 0 7.58-3.4A16.41 16.41 0 0 0 312 125a29.43 29.43 0 0 0 2.66-3.28 10 10 0 0 1-1.67 4.08 11.38 11.38 0 0 1-1.44 1.74 13.14 13.14 0 0 1-5.86 3.19 11.22 11.22 0 0 1-4.41.27z" class="cls-42"/>
    <path d="M295.21 125.88s-1.12-5.47-.45-6.89 10.67-12.5 19.59 1.72c0 0-13.29-5.52-19.14 5.17z" class="cls-27"/>
    <path d="M302.21 113.78a11.55 11.55 0 0 1 3 5.62l4.29-.1s-2.1-5.88-7.29-5.52z" class="cls-26"/>
    <path d="M294.84 125.88a16.4 16.4 0 0 1-1-5.84.79.79 0 0 1 0-.22 11.79 11.79 0 0 1 1.16-2.13 10.36 10.36 0 0 1 1.6-1.84 7.05 7.05 0 0 1 2.07-1.33 4.25 4.25 0 0 1 2.4-.29 7.64 7.64 0 0 0-3.46 2.6 18.52 18.52 0 0 0-1.26 1.75c-.38.6-.75 1.26-1.06 1.87l.06-.26c-.09 1.81-.14 3.73-.51 5.69z" class="cls-30"/>
    <path d="M294.8 128.17a7.69 7.69 0 0 1 1.8-7.7 12.48 12.48 0 0 1 7.37-3.72 14.77 14.77 0 0 1 4.1-.11 12.79 12.79 0 0 1 3.95 1.15 23.92 23.92 0 0 1 3.13 1.92 6 6 0 0 0 1.37.72 4 4 0 0 0 1.73.15 4.74 4.74 0 0 1-.7.72 3.56 3.56 0 0 1-.95.49 5.18 5.18 0 0 1-2.16.22c-1.37-.12-2.52-.41-3.59-.54a18.91 18.91 0 0 0-6.1.12 16 16 0 0 0-5.63 1.79 10.6 10.6 0 0 0-4.32 4.79z" class="cls-42"/>
    <path d="M296.31 152.83s-2.53-2-4.54-.85c-1.85 1-1 2.75-.37 2.94s2-.63 2.56-1.25c.04 0 .3-.61 2.35-.84z" class="cls-30"/>
    <path d="M82.45 301.53s12 35.22 25.28 64.61c18.19 40.29 43.06 56.41 51.57 55.75s29.23-24.59 31.78-28.54 4.09-10.83 14.84-48.77l10.74-37.94" class="cls-24"/>
    <path d="M239.61 134.17L220.43 137.86 222.55 143.69 241.82 140.06 239.61 134.17 239.61 134.17z"/>
    <path d="M300.23 60.62s25.66-2.72 38.58 15.87 8.65 25.89 3.33 43-15.7 39 .33 67.28 2.3 39.87 1.39 46.05-.67 15.87 7 20.9c0 0-23.35-3.34-17.32-20.75s17.49-26 7.27-38.28-21-19.42-15.91-53.52 1.26-50.79-13-57.08-19.76-3.37-30.27 1.38-31.16 4.62-38.59 2.7l4.84 3.19s-18.36 10.12-20.12 17.26 12.59 44.37 8.76 78.7c-8.45 75.92-29.15-42.67-29.15-42.67l7.4-72.7z" class="cls-11"/>
    <path d="M327.3 157c.17-8.47 6-18.33 10.76-24.92-4.6 14.95-7.94 32.95 4.41 54.72 4.58 8.08 6.72 14.8 7.43 20.43-5.16-18.63-22.9-36.68-22.6-50.23z" class="cls-12"/>
    <path d="M214.31 133.77a128.21 128.21 0 0 1 6.51 20c.86 3.41 1.53 6.85 2.16 10.31s1 7 1.4 10.46a100.27 100.27 0 0 1-.12 21.14 51.49 51.49 0 0 1-6.26 20.05 72.37 72.37 0 0 0 3.7-20.31c.15-3.43.23-6.87.07-10.31s-.31-6.88-.67-10.31-.7-6.86-1.19-10.28-1-6.84-1.6-10.27c-1.17-6.83-2.52-13.64-4-20.48z" class="cls-29"/>
    <path d="M215.27 123.51c-3.9.57-8.56 6-14.06.59-3.14-3.07-8 6.1-13.88 14.12a88.4 88.4 0 0 1-3.88-16.94c-.94-10 .43-27.47 11.14-42.4 1.54 1.28 3.73 4.33 5.85 11.63 3.81 13.16 5.19 9.76 12 8.58s13.7 7.56 8 37.71c-.05 0-1.28-13.86-5.17-13.29z" class="cls-12"/>
    <path d="M190.32 85.9c2 .73 3.88 2.43 4.17 6.15.65 8.43-6.17 17.28 11.17 13.71 7.41-1.53 8.75 7.35 8.75 7.35a10.54 10.54 0 0 0-12.08-3.11c-7.72 2.78-9.92 3.21-12.05-5.1-1.09-4.27-2.54-6.42-4.57-7.22a61.59 61.59 0 0 1 4.61-11.78z" class="cls-3"/>
    <path d="M300.23 60.62S237.86 34 199.69 74.24c-36.61 38.6-1.87 82.93 1.5 99.72 7.41 36.87-42.87 47.91-16.33 91.18" class="cls-14"/>
    <rect width="90.12" height="165.07" x="99.36" y="107.74" class="cls-2" rx="14.01" transform="rotate(179.23 144.423 190.274)"/>
    <path d="M171 270.34a11.56 11.56 0 0 0 11.41-11.72l-1.95-141.92a11.53 11.53 0 0 0-5-9.38h1.37a11.57 11.57 0 0 1 11.73 11.41l1.91 141.92a11.57 11.57 0 0 1-11.47 11.7l-67 .9a11.41 11.41 0 0 1-6.69-2z" class="cls-44"/>
    <circle cx="140.46" cy="176.86" r="9.4" class="cls-44"/>
    <rect width="90.12" height="165.07" x="99.36" y="107.74" class="cls-31" rx="14.01" transform="rotate(179.23 144.423 190.274)"/>
    <path fill="#fecbae" stroke="#9a491e" stroke-linecap="round" stroke-linejoin="round" stroke-width="3.27px" d="M119.26 294.37a126.4 126.4 0 0 0 10.54-22.28s26.82-8.67 31.8-12.51 4.83-5.65-.46-6-34.94 2-34.94 2-1.69-3-.73-4.68 39.9-24.95 45-29.66c7.12-6.6 2.76-11.31.05-11.1s-28 12.17-33.2 14.94-18.89 7.28-20.55 7.05S119.52 216.3 121 214s11.89-15.65 18.38-20.88c9-7.22 11.21-14.87 8.21-16.09s-14 4.54-21.36 10.57-18.65 15.4-21.76 19.86-6.14 9.9-6.14 9.9-2.78-10.2-2.19-11.43c.29-.62 3.39-1.93 3.39-1.93l-.19-15.13s-13.83 4-17.86 8.7c-1.38 1.62-3.78 62.49-5 76.52a27.54 27.54 0 0 0 .41 8 162.56 162.56 0 0 0 5.61 19.49"/>
    <path d="M125.21 252.73v-.1a.28.28 0 000 .09zM170.44 221.26c-5.07 4.71-44 28-45 29.66a2.55 2.55 0 00-.13.39c.94-4.69 7.74-12.63 24.36-20.93A91.71 91.71 0 00174.1 213c.62 2 0 4.87-3.66 8.26zM128 197.61c6.72-6.29 17-13.37 20.23-15.53-1.14 3.08-4 7.12-8.89 11-6.49 5.23-16.92 18.59-18.38 20.88s-5.58 16.86-4.37 18.07c-8.18-3.86 3.41-26.93 11.41-34.42zM163.34 258.12c-.49.45-1.06.93-1.74 1.46-5 3.84-31.8 12.51-31.8 12.51 2.61-6.55 24.05-11.9 33.54-13.97z" class="cls-23"/>
    <path d="M82.73 197.87c1.65-1.86 4.89-3.57 8.16-4.94a74.43 74.43 0 0 0-5.16 22.36C84.55 229.2 80.93 269.61 79 291c-1.25-4.52-2-7.84-2.43-10.22a27 27 0 0 1-.25-7.83c1.52-13.72 5.03-73.51 6.41-75.08z" class="cls-26"/>
    <path d="M82.45 301.53A162.56 162.56 0 0 1 76.84 282a27.54 27.54 0 0 1-.41-8c1.27-14 3.67-74.9 5-76.52 4-4.73 17.86-8.7 17.86-8.7l.24 15.22s-3.1 1.31-3.39 1.93c-.59 1.23 2.19 11.43 2.19 11.43s3-5.47 6.14-9.9 14.38-13.84 21.73-19.86 18.36-11.79 21.36-10.57.76 8.87-8.21 16.09c-6.49 5.23-16.92 18.59-18.38 20.88s-5.88 17.91-4.23 18.15 15.31-4.28 20.55-7.05 30.49-14.73 33.2-14.94 7.07 4.5-.05 11.1c-5.07 4.71-44 28-45 29.66s.73 4.68.73 4.68 29.64-2.3 34.94-2 5.43 2.13.46 6-31.8 12.51-31.8 12.51a126.4 126.4 0 0 1-10.54 22.28" class="cls-24"/>
    <path d="M99.27 184.02L99.61 209.34" class="cls-31"/>
    <rect width="31.29" height="31.29" x="105.18" y="118.45" class="cls-44" rx="8.94" transform="rotate(179.23 120.824 134.088)"/>
    <rect width="31.29" height="31.29" x="105.18" y="118.45" class="cls-31" rx="8.94" transform="rotate(179.23 120.824 134.088)"/>
    <path d="M338.81 76.49c12.92 18.58 8.65 25.89 3.33 43-.73 2.38-1.57 4.85-2.42 7.41 11-35.52-5.72-62.25-33.78-60.07-27.34 2.12-41.22 4.53-41.22 4.53a179 179 0 0 1 30.44-10.05l5.07-.67s25.66-2.74 38.58 15.85z" class="cls-12"/>
    <path d="M285.19 64.12a52.2 52.2 0 0 1 15-3.85 46.87 46.87 0 0 1 15.61.88 40.91 40.91 0 0 1 7.5 2.47c1.22.49 2.38 1.13 3.56 1.73s2.3 1.3 3.38 2.07a50.89 50.89 0 0 1 11.55 10.81 35.2 35.2 0 0 1 6.93 14.46 33.15 33.15 0 0 1 .66 8.1 44.12 44.12 0 0 1-1.14 8c-2.44 10.39-7.14 19.74-10.27 29.45a61.79 61.79 0 0 0-3.09 14.76 40.29 40.29 0 0 0 .14 7.45 54.92 54.92 0 0 0 1.38 7.41 71 71 0 0 0 5.45 14.14c2.26 4.59 4.89 9.05 7.15 13.83s4.12 10 4.07 15.59a31.88 31.88 0 0 1-4.49 15.53l-1.9 3.36a17.47 17.47 0 0 0-1.34 3.29 16.73 16.73 0 0 0 6.49 18.78 1.61 1.61 0 0 1 .39 2.25 1.67 1.67 0 0 1-1.25.69 23.24 23.24 0 0 1-5.76-.5 22.23 22.23 0 0 1-5.42-1.89 18.22 18.22 0 0 1-8.13-8.13c-.24-.43-.41-.88-.61-1.32a9.31 9.31 0 0 1-.51-1.49 10.11 10.11 0 0 1-.29-3.13 17.68 17.68 0 0 1 1.4-5.68 87.33 87.33 0 0 1 5.08-9.62 66.69 66.69 0 0 0 4.65-9.3 21.8 21.8 0 0 0 1.6-9.71 18.18 18.18 0 0 0-3.55-9 98.88 98.88 0 0 0-6.67-8.11 73 73 0 0 1-6.8-8.52 31 31 0 0 1-4.36-10.29c-1.61-7.36-.84-14.77.43-21.84.34-1.78.7-3.54 1.11-5.29l1.14-5.17c.67-3.45 1.28-6.9 1.63-10.38a71.22 71.22 0 0 0 .43-10.41 45.73 45.73 0 0 0-.48-5.12 25.09 25.09 0 0 0-.49-2.47c-.1-.4-.21-.79-.33-1.18s-.28-.8-.37-1v-.1a1.69 1.69 0 0 1-.08-.24 39.33 39.33 0 0 0-3.86-9.91 25.85 25.85 0 0 0-6.75-7.9 24.33 24.33 0 0 0-9.36-4.38 30.16 30.16 0 0 0-10.47-.47 28.92 28.92 0 0 0-10 3.1 55.49 55.49 0 0 1-10.69 4.06 58.26 58.26 0 0 1-11.27 1.85c-1.9.12-3.8.16-5.71.09a43.16 43.16 0 0 1-5.79-.54l-.3-.09-7.55-1.24-7.84-1.36.94-3.1c1.91.85 3.86 1.63 5.85 2.36s4 1.4 6 2a1.64 1.64 0 0 1 1.09 2 1.67 1.67 0 0 1-.74.94 80 80 0 0 0-13.51 9.74 24.73 24.73 0 0 0-5.05 6.13l-.21.42a2.28 2.28 0 0 0-.12.29 3.82 3.82 0 0 0-.13.7 9.4 9.4 0 0 0 .06 1.81 35.66 35.66 0 0 0 .75 4c1.32 5.43 3.1 10.9 4.44 16.47a166.85 166.85 0 0 1 3.15 16.92 135.56 135.56 0 0 1 .23 34.33 132.45 132.45 0 0 1-8.62 33.06 136.56 136.56 0 0 0 7.19-33.21 132.57 132.57 0 0 0-1.49-33.77c-.93-5.57-2.22-11.06-3.67-16.52l-2.24-8.21c-.73-2.74-1.54-5.48-2.22-8.3a36.89 36.89 0 0 1-.82-4.4 12.33 12.33 0 0 1-.06-2.45 6.63 6.63 0 0 1 .26-1.39 4.84 4.84 0 0 1 .28-.7l.27-.54a27.63 27.63 0 0 1 5.72-7 68.16 68.16 0 0 1 6.82-5.48c2.37-1.68 4.77-3.24 7.32-4.72l.34 3c-2.11-.64-4.14-1.33-6.19-2.07s-4.06-1.56-6.06-2.45a1.63 1.63 0 0 1 .93-3.1l7.87 1.31 3.94.66 2 .35 1 .18.52.1h.27l.51.14-.31-.09a40.43 40.43 0 0 0 5.28.49c1.79.06 3.59 0 5.39-.1a55.57 55.57 0 0 0 10.64-1.73A52.18 52.18 0 0 0 282.63 83l1.28-.63c.44-.23.9-.4 1.35-.6.91-.37 1.84-.69 2.77-1a34.51 34.51 0 0 1 17.32-.69A27.6 27.6 0 0 1 316 85a29 29 0 0 1 7.6 8.87 42.33 42.33 0 0 1 4.19 10.74l-.13-.34a11.53 11.53 0 0 1 .57 1.48c.15.46.28.93.39 1.39a26.75 26.75 0 0 1 .55 2.75 51.37 51.37 0 0 1 .52 5.5 74.33 74.33 0 0 1-.45 10.88c-.36 3.61-1 7.16-1.68 10.69l-1.16 5.25c-.4 1.71-.75 3.43-1.08 5.15-1.24 6.86-1.91 13.92-.45 20.53a27.62 27.62 0 0 0 3.91 9.24 70 70 0 0 0 6.51 8.12 106.24 106.24 0 0 1 6.87 8.37 21.33 21.33 0 0 1 4.15 10.61 25 25 0 0 1-1.79 11.17 71.18 71.18 0 0 1-4.87 9.77 84.74 84.74 0 0 0-4.89 9.22 14.62 14.62 0 0 0-1.17 4.62 6.48 6.48 0 0 0 .55 3.18c.17.37.31.75.51 1.11a15.13 15.13 0 0 0 6.7 6.7 19.14 19.14 0 0 0 4.62 1.6 20.72 20.72 0 0 0 4.84.44l-.82 3a20 20 0 0 1-7.75-22.39 22.22 22.22 0 0 1 1.59-3.89l1.93-3.39a28.64 28.64 0 0 0 4.08-14c.05-4.86-1.59-9.63-3.75-14.19s-4.81-9.06-7.13-13.76a74.9 74.9 0 0 1-5.69-14.79 59.61 59.61 0 0 1-1.46-7.85 43.33 43.33 0 0 1-.15-8.05 65.52 65.52 0 0 1 3.28-15.55c1.63-5 3.6-9.82 5.45-14.63a99.23 99.23 0 0 0 4.7-14.54 39.54 39.54 0 0 0 .66-14.76 32.61 32.61 0 0 0-5.89-13.53A49.09 49.09 0 0 0 329.17 69c-1-.77-2.09-1.42-3.16-2.1s-2.19-1.28-3.35-1.79a38.61 38.61 0 0 0-7.15-2.65A47.47 47.47 0 0 0 300.29 61a51.86 51.86 0 0 0-15.1 3.12z" class="cls-29"/>
    <path d="M294.35 80.77a29 29 0 0 1 4.9-2.67 32.91 32.91 0 0 1 5.34-1.81 28.07 28.07 0 0 1 11.41-.45 25.26 25.26 0 0 1 10.62 4.64 27.39 27.39 0 0 1 11.44 19.62 19.83 19.83 0 0 1 .21 2.88 21 21 0 0 1 0 2.86c-.06 1-.06 1.91-.17 2.85l-.4 2.82a70.67 70.67 0 0 1-7.44 21 111.63 111.63 0 0 0 4.91-21.36 42.65 42.65 0 0 0-.19-10.66 26.13 26.13 0 0 0-10.24-17.58 24.13 24.13 0 0 0-9.27-4.61c-6.83-1.63-14.34-.39-21.12 2.47z" class="cls-29"/>
    <path d="M304.28 468.63s-3.8 8.74-4.31 15.85" class="cls-22"/>
    <path d="M304.28 468.63a19.68 19.68 0 0 1-.27 4.27 33.38 33.38 0 0 1-.9 4 35.65 35.65 0 0 1-1.3 3.81 25 25 0 0 1-1.84 3.82 11.22 11.22 0 0 1-.68-4.33 18 18 0 0 1 .71-4.2 19.23 19.23 0 0 1 1.62-3.9 13 13 0 0 1 2.66-3.47z" class="cls-30"/>
    <path d="M272.53 83.1a22.94 22.94 0 0 1-7.65 1.68 28.37 28.37 0 0 1-7.89-.65 23.16 23.16 0 0 1-7.36-3.13 15.86 15.86 0 0 1-5.24-6 41.94 41.94 0 0 0 6.5 3.69 45.7 45.7 0 0 0 6.85 2.31c2.36.53 4.76.94 7.22 1.27s4.96.54 7.57.83z" class="cls-29"/>
    <circle cx="126.7" cy="134.82" r="4.55" class="cls-2"/>
    <circle cx="115.47" cy="140.69" r="4.55" class="cls-2"/>
    <circle cx="115.57" cy="128.57" r="4.55" class="cls-2"/>
    <path fill="url(#linear-gradient-3)" d="M281.89 291c8.52 1.28 14.41 9.88 13.68 19.29s-7.88 17-16.49 17c-9.23-.06-16.55-8.76-15.73-19.45s9.41-18.23 18.54-16.84z"/>
    <path d="M294.63 314.75a2.15 2.15 0 0 0-1-.26l-3.35-.2h-.23a1.75 1.75 0 0 1-1.41-.85 3.37 3.37 0 0 1-.37-1.31 7.53 7.53 0 0 1 .11-2 9.82 9.82 0 0 0 .25-1.42 10.09 10.09 0 0 0-1.4-6.28 8.4 8.4 0 0 0-3.37-3.27 7.23 7.23 0 0 0-3.06-.84 9.06 9.06 0 0 0-1.47.08h-.1a8.59 8.59 0 0 0-1.21.31.15.15 0 0 1-.19-.06 2.2 2.2 0 0 0-1.46-.88 2.3 2.3 0 0 0-1.69.43 3.15 3.15 0 0 0-1.17 2c-.4 1.71-.82 3.42-1.24 5.14q-.74 3-1.48 6.1c-.2.84-.4 1.68-.61 2.52-.16.59-.32 1.19-.43 1.79a3 3 0 0 0 .42 2.14 2.61 2.61 0 0 0 .61.7 1.82 1.82 0 0 0 .91.36 2.71 2.71 0 0 0 1.85-.4 3 3 0 0 0 1.28-1.89c.36-1.52.72-3 1.09-4.56.16-.66.31-1.32.47-2 .24-1 .49-2 .73-3.05a4.59 4.59 0 0 1 1.33-2.37 3.13 3.13 0 0 1 4.58.23 4.28 4.28 0 0 1 1 2.54 7.9 7.9 0 0 1-.13 1.88 11.65 11.65 0 0 0 .35 5.87 7.55 7.55 0 0 0 .88 1.83 5.74 5.74 0 0 0 4.35 2.55c.95.07 1.9.08 2.83.13h.13a19.27 19.27 0 0 0 2.28-4.85s-.05-.08-.08-.11z" class="cls-3"/>
    <path d="M299.63 166.67a9.4 9.4 0 0 0-4.81 1.44 27.15 27.15 0 0 0-3.51 3s5-1.47 7.36-2.5 2.25-2.05.96-1.94z" class="cls-33"/>
    <path d="M339.63 333.72a48.39 48.39 0 0 0 2.23-11.58 37.82 37.82 0 0 0 0-5.83l-.26-2.89-.06-.72-.13-.71-.27-1.43a48.6 48.6 0 0 0-1.4-5.59c-.25-.93-.68-1.79-1-2.69a19.34 19.34 0 0 0-1.15-2.64l-1.29-2.56c-.48-.83-1-1.63-1.5-2.44l-.77-1.22-.87-1.13c-.59-.76-1.14-1.54-1.77-2.26a44.34 44.34 0 0 0-4-4.12l-1.06-1-.53-.48-.58-.43c-.76-.57-1.54-1.14-2.29-1.73s-1.61-1-2.41-1.56l-1.22-.77c-.4-.26-.85-.44-1.28-.67l-2.56-1.27-2.68-1.08-1.35-.54L310 276l-2.79-.81-2.86-.57c-.48-.08-.95-.2-1.44-.27l-1.45-.14a47.53 47.53 0 0 0-11.8-.06 38.13 38.13 0 0 1 11.9-1.54h1.52c.51 0 1 .1 1.51.14l3 .33c1 .18 2 .42 3 .63l1.5.33 1.46.47c1 .33 1.94.63 2.91 1l2.8 1.26c.46.23.95.4 1.39.66l1.33.77c.88.53 1.81 1 2.65 1.58a43.3 43.3 0 0 1 4.85 3.79 48.6 48.6 0 0 1 4.35 4.38c.66.78 1.24 1.63 1.87 2.45l.92 1.24.81 1.31c.52.89 1.08 1.75 1.58 2.65l1.32 2.79a20.86 20.86 0 0 1 1.13 2.87c.31 1 .73 1.92 1 2.92l.71 3a23.83 23.83 0 0 1 .46 3 39.06 39.06 0 0 1 .34 6.11 36 36 0 0 1-.55 6.05 38.53 38.53 0 0 1-3.79 11.38z" class="cls-38"/>
    <path d="M340.5 273.94a17.49 17.49 0 00-3.48 2 18.1 18.1 0 00-2.92 2.6 16.59 16.59 0 00-2.23 3.09 17.73 17.73 0 00-1.47 3.37v.07a1.65 1.65 0 01-3.12-1.05 2.75 2.75 0 01.14-.3 20.35 20.35 0 012.49-3.57 18.2 18.2 0 013.14-2.88 18.85 18.85 0 013.6-2.09 17.56 17.56 0 013.85-1.24zM266.89 347.6a55.9 55.9 0 0013.8 8.09 50.26 50.26 0 007.52 2.33 43.4 43.4 0 007.77 1.09 45.64 45.64 0 007.84-.14 47.86 47.86 0 007.75-1.37 56.42 56.42 0 0014.7-6.32 37.43 37.43 0 01-13.94 8.72 41.15 41.15 0 01-8.15 2 45.36 45.36 0 01-8.4.32 41.32 41.32 0 01-16.14-4.32 37.27 37.27 0 01-12.75-10.4z" class="cls-38"/>
    <path d="M382.33 273.88c-11.73-7.8-20.55-8.26-20.55-8.26" class="cls-31"/>
    <path d="M496.29 181.32s3.34-30-17.19-38.92c0 0-10.87 16-9.18 33.39" class="cls-2"/>
    <path d="M496.29 181.32s3.34-30-17.19-38.92c0 0-10.87 16-9.18 33.39" class="cls-47"/>
    <path d="M490 181.32s-11.42-28.32-33-29.84-22.33 9.38-22.52 14.92 11.07 14.92 11.07 14.92z" class="cls-15"/>
    <path d="M490 181.32s-11.42-28.32-33-29.84-22.33 9.38-22.52 14.92 11.07 14.92 11.07 14.92z" class="cls-16"/>
    <path fill="#f6a472" d="M454.42 177.8s-9.16-20.45-25.78-23.22-16.83 6.6-16.62 11.61 16.83 23.33 16.83 23.33z"/>
    <path fill="none" stroke="#dd814e" stroke-linecap="round" stroke-linejoin="round" stroke-width="3.2px" d="M454.42 177.8s-9.16-20.45-25.78-23.22-16.83 6.6-16.62 11.61 16.83 23.33 16.83 23.33z"/>
    <path d="M435.62 185.64s-12.11-18.86-28.95-19.13-15.66 9-14.71 14S412.08 201 412.08 201z" class="cls-17"/>
    <path d="M435.62 185.64s-12.11-18.86-28.95-19.13-15.66 9-14.71 14S412.08 201 412.08 201z" class="cls-50"/>
    <path fill="#7ac375" d="M388.27 186.14C405 184.28 419.2 204 419.2 204l-21.64 20.36s-20.82-15.15-22.32-20.57-3.74-15.79 13.03-17.65z"/>
    <path fill="none" stroke="#4e9b48" stroke-linecap="round" stroke-linejoin="round" stroke-width="3.2px" d="M388.27 186.14C405 184.28 419.2 204 419.2 204l-21.64 20.36s-20.82-15.15-22.32-20.57-3.74-15.79 13.03-17.65z"/>
    <path fill="#76cedf" d="M374.68 211.28c14.93-7.86 35.31 5.29 35.31 5.29l-12.71 26.86s-24.91-6.51-28.29-11-9.23-13.28 5.69-21.15z"/>
    <path d="M374.68 211.28c14.93-7.86 35.31 5.29 35.31 5.29l-12.71 26.86s-24.91-6.51-28.29-11-9.23-13.28 5.69-21.15z" class="cls-9"/>
    <path d="M366.53 239.91c14.36-8.85 35.58 2.88 35.58 2.88l-10.85 27.66s-25.3-4.8-29-9.05-10.09-12.63 4.27-21.49z" class="cls-18"/>
    <path d="M366.53 239.91c14.36-8.85 35.58 2.88 35.58 2.88l-10.85 27.66s-25.3-4.8-29-9.05-10.09-12.63 4.27-21.49z" class="cls-21"/>
    <path d="M367.16 268.66c12.89-10.89 35.62-2.42 35.62-2.42l-6.65 29s-25.73-1-30-4.67-11.86-11.03 1.03-21.91z" class="cls-19"/>
    <path d="M367.16 268.66c12.89-10.89 35.62-2.42 35.62-2.42l-6.65 29s-25.73-1-30-4.67-11.86-11.03 1.03-21.91z" class="cls-20"/>
    <path d="M159 423.43c5.4 53.06 96.53 98.27 218.7 71.56s98.81-125.89 98.81-125.89-5-20.74-14.48-48.31-12-48.47-2.64-51.63 19 3 21.68 8.58 9.32 26.14 33.64 25.69 35-25.77 28-43.09-12.32-18.65-12.32-18.65-9-38.31-20.32-51.63-48.63-24.6-75.95-8.8-49.63 40.65-55.64 91c0 0 .1 34.24 6.06 55.61s-7.53 51.24-15 59.7c0 0-11.36 16.43-74.46 14.32s-64-13.79-64-13.79-15.45-45.81-18.67-61.33c0 0-14.34 51.43-17.72 60.8s-8.35 13.55-12.55 17.84-11 11.3-14.62 13.92-5.61 4-8.5 4.12S173 530.58 377.7 495" class="cls-2"/>
    <path d="M227.79 376.67c2.24 6.83 3.8 11.47 3.8 11.47s.94 11.68 64 13.79 74.47-14.31 74.47-14.31c7.43-8.47 20.91-38.34 14.95-59.71S379 272.3 379 272.3a169.05 169.05 0 014.63-24.15c-.62 3.68-7 45.25 13.09 82.43 21 38.94 11.48 82.59-58.63 90.25-64.97 7.1-110.53-6.83-110.3-44.16zM159.54 423.49zM481.6 277.81c-2.66-5.58-12.32-11.75-21.68-8.59s-6.81 24.07 2.65 51.64c.85 2.47 1.65 4.87 2.43 7.23-20.93-16.14-46.86-30-41.61-50.28 7-27.12 31.67-23 52.89-7.36s46 12.23 51.41 8.71c9.57-6.29 13.36-14.11 14.66-20.85.29.68.58 1.35.88 2.09 7 17.32-3.67 42.64-28 43.09s-30.96-20.11-33.63-25.68zM158.7 423.52zM159.41 423.49h-.71z" class="cls-25"/>
    <path d="M172.44 452.39c-7-8.89-11.34-18.44-12.8-28.25-.07-.42-.1-.65-.1-.65-.08-.54 0 .54 0 0l2.75-.6a26 26 0 0 0 5.73-3.51 91.92 91.92 0 0 0 8.28-7.52c13.49 36.36 50.56 86.73 161.26 76.92 91-8.06 123.59-60 141-92.93-2.12 31.36-18.87 81.38-100.34 99.2-32.26 7.05-62.34 8.94-89.3 7-68.92-2.88-101.36-28.45-116.48-49.66z" class="cls-25"/>
    <path d="M370.1 387.62s2.2 13.47-63.91 14.24-66.75-4.66-71.54-11.06" class="cls-47"/>
    <path d="M370.1 387.62c7.43-8.47 20.91-38.34 14.95-59.71S379 272.3 379 272.3c6-50.33 28.34-75.19 55.65-91s64.62-4.52 75.94 8.8 20.32 51.63 20.32 51.63 5.33 1.33 12.33 18.65-3.67 42.64-28 43.09-31-20.11-33.65-25.68-12.32-11.75-21.68-8.59-6.81 24.07 2.65 51.64 14.48 48.31 14.48 48.31 23.35 99.16-98.82 125.88c-118.93 26-208.67-17.67-218.32-69" class="cls-47"/>
    <path d="M464.49 192.2s8.2-38.06-11.49-49.8c0 0-26.54 17.25-4.38 49.8" class="cls-2"/>
    <path d="M464.49 192.2s8.2-38.06-11.49-49.8c0 0-26.54 17.25-4.38 49.8" class="cls-47"/>
    <path d="M489.3 181.68s9.43 18 23.45 19.66c0 0 26.43-37.66 35-62.82a3.1 3.1 0 0 0-4.55-3.61c-10.2 6.09-31 20.44-53.9 46.77z" class="cls-17"/>
    <path fill="#e5c525" d="M512.75 201.34c-14-1.62-23.45-19.66-23.45-19.66 1.28-1.46 2.53-2.82 3.79-4.22 3.5 4.09 9.53 8.44 18.68 6.31 5.9-1.37 12.63-5.55 18.77-10.25-9.05 15.36-17.79 27.82-17.79 27.82z"/>
    <path d="M489.3 181.68s9.43 18 23.45 19.66c0 0 26.43-37.66 35-62.82a3.1 3.1 0 0 0-4.55-3.61c-10.2 6.09-31 20.44-53.9 46.77z" class="cls-50"/>
    <circle cx="484.63" cy="231.89" r="7.57" fill="#0b1013"/>
    <circle cx="483.37" cy="229.49" r="2.86" class="cls-2"/>
    <circle cx="484.63" cy="231.89" r="12.4" class="cls-47"/>
    <path fill="#ffb6bb" d="M457.3 186s2.89-21-1.84-28.93c0 0-9.48 9.1-3.35 26.68z"/>
    <path fill="none" stroke="#ce6e78" stroke-linecap="round" stroke-linejoin="round" stroke-width="3.2px" d="M457.3 186s2.89-21-1.84-28.93c0 0-9.48 9.1-3.35 26.68z"/>
    <path fill="#180a22" d="M323.09 111a11.76 11.76 0 0 1 .72 7.15l-1.9 1.91s.88 11-1.12 14.94-8 9.62-18.94 8.43c-6.29-.68-8.46-9.77-10-11.89s-4.11-6.52-7.64-2.07c-1.3 1.63 1.35 12.69-7.54 20.79s-20 6.71-24.85 2.07-6.82-11.71-6.82-11.71a8.67 8.67 0 0 1-3.22-.56c-1-.57-2.28-4.71-2.21-5.89s6.11-7.95 17.95-9.28 21-1.66 28.65-4.61S308 107.19 323.09 111z"/>
    <path d="M307.84 111.23a25.26 25.26 0 004.47 10.5 74.36 74.36 0 009.26 10.71 9.91 9.91 0 01-.78 2.54 15.57 15.57 0 01-6.74 6.43C313 136.55 311 129 308 125.57c-3.15-3.61-8.94-7.71-12.16-9.88a63.19 63.19 0 0112-4.46zM251 126.35a31.82 31.82 0 016.55-1.46c2.89-.33 5.62-.59 8.22-.85-.2 2.91 0 9.2 4.3 14.15a78.58 78.58 0 009.43 8.82 19.84 19.84 0 01-2.88 3.23 22.76 22.76 0 01-4.77 3.37 139.82 139.82 0 00-8-14.32c-5.35-8.36-5.13-12.29-12.85-12.94z" class="cls-59"/>
    <path d="M316.19 110.14v3.21a26.2 26.2 0 0 1 4.45.38 9.79 9.79 0 0 1 .15 2.9l-1.15 1.15a3.21 3.21 0 0 0-.92 2.52c.32 4.07.3 11.08-.79 13.23-1.6 3.16-6 6.84-13.18 6.84a24.81 24.81 0 0 1-2.55-.14c-2.94-.32-4.88-4.63-6.16-7.47a17.69 17.69 0 0 0-1.64-3.15l-.37-.51c-1.28-1.79-3.41-4.78-6.82-4.78-2 0-3.89 1.06-5.54 3.13-1 1.25-1.08 2.85-1.19 5-.21 4.13-.52 10.38-6 15.37a17.79 17.79 0 0 1-12.13 5A12.36 12.36 0 0 1 254 150c-4.12-3.94-5.85-10.14-5.86-10.2a3.23 3.23 0 0 0-3.11-2.38 10.73 10.73 0 0 1-1.29-.09 15.48 15.48 0 0 1-.83-2.49c1.33-1.55 6.28-5.77 15-6.76 2.49-.28 4.86-.52 7.15-.74 8.53-.85 15.9-1.58 22.3-4.07 1.77-.68 3.73-1.66 6-2.79 6.37-3.17 14.29-7.12 22.82-7.12v-3.21m0 0c-12.43 0-23.54 7.64-30 10.14-7.61 3-16.81 3.27-28.65 4.61s-17.87 8.1-17.95 9.28 1.21 5.32 2.22 5.89a8.43 8.43 0 0 0 3.2.56s1.89 7 6.75 11.69a15.46 15.46 0 0 0 10.56 3.75 21.19 21.19 0 0 0 14.29-5.82c8.89-8.1 6.24-19.16 7.54-20.79 1.1-1.4 2.11-1.92 3-1.92 2 0 3.53 2.53 4.61 4 1.57 2.12 3.74 11.21 10 11.89a26.68 26.68 0 0 0 2.9.16c9.1 0 14.21-5 16-8.59 2-3.95 1.12-14.94 1.12-14.94l1.9-1.91a11.76 11.76 0 0 0-.72-7.15 28.49 28.49 0 0 0-6.9-.84z"/>
    <path d="M292.22 132.18s1.85 6.51 10.92 11.34c0 0 .44 2.07-3.44.39s-10.07-8.74-7.48-11.73z" class="cls-30"/>
    <path d="M169.4 460s42.23 23.86 71.31 19.58 15.89-2.38 41.5 4 28.5 1.94 46.68-4 19.35 6.79 35.57 5.27 41.26-3.53 52.65-15.57 12.55-11.45 21.45-13.07 4.05-12.16 16.6-13.37 23.41-13.18 23.41-13.18-18.65 78.15-146.8 80.34-162.37-50-162.37-50z" class="cls-6"/>
    <path d="M169.56 459.71a206.24 206.24 0 0 0 18.95 8.68 177.61 177.61 0 0 0 19.7 6.67 102.6 102.6 0 0 0 20.33 3.54 57.68 57.68 0 0 0 10.19-.26c1.65-.19 3.4-.49 5.11-.77l5.17-.82a89.73 89.73 0 0 1 10.63-1.19 17.78 17.78 0 0 1 5.67.88c1.76.56 3.35 1.18 5 1.72 3.25 1.1 6.55 2 9.9 2.88l2.5.63 2.52.56c1.68.4 3.37.72 5.05 1 6.73 1.25 13.47 1.87 19.8.23a88.1 88.1 0 0 0 9.62-3.27l4.93-1.84c1.69-.58 3.27-1.21 5.11-1.71a25.7 25.7 0 0 1 11.45-1.1c.5.09 1 .16 1.48.26l1.44.4a10.78 10.78 0 0 1 1.39.46l1.35.51c1.72.75 3.34 1.57 4.84 2.28a21.44 21.44 0 0 0 8.9 2.4c.38 0 .76.05 1.14.05l1.17-.08 1.16-.07c.4 0 .86-.09 1.28-.13l5.18-.58a203.16 203.16 0 0 0 20.27-3.04 81.14 81.14 0 0 0 9.68-2.64c1.59-.49 3.08-1.15 4.6-1.76a41.07 41.07 0 0 0 4.27-2.23l1-.6c.33-.21.64-.45 1-.67l1-.69a5.89 5.89 0 0 0 .91-.72l1.73-1.55 1.86-1.88a69.74 69.74 0 0 1 8.14-7.28 19.21 19.21 0 0 1 5.4-2.74 36.76 36.76 0 0 1 5.51-1.13l1.29-.2.64-.09.32-.05.24-.06.93-.21a7.11 7.11 0 0 1 .8-.34 6.47 6.47 0 0 0 2.51-2.9 29.14 29.14 0 0 1 2.9-4.82 11.26 11.26 0 0 1 5.16-3.52 17 17 0 0 1 2.88-.61l2.64-.29c.4-.05.81-.07 1.21-.15l1.2-.24A22.75 22.75 0 0 0 461 440a38.33 38.33 0 0 0 9.15-4.3 50.91 50.91 0 0 0 4.25-2.93 48.51 48.51 0 0 0 4-3.3.33.33 0 0 1 .45 0 .33.33 0 0 1 0 .43 49.54 49.54 0 0 1-7.62 7.35 39.52 39.52 0 0 1-9.24 5.51 24.82 24.82 0 0 1-2.59.92l-1.4.32c-.44.13-.91.19-1.37.28l-1.37.26-1.16.23a14.2 14.2 0 0 0-2.18.64 7.54 7.54 0 0 0-3.18 2.53 25.8 25.8 0 0 0-2.17 4.29 15.49 15.49 0 0 1-1.51 2.66c-.33.44-.75.87-1.13 1.29s-.93.75-1.41 1.1-1 .53-1.56.78-1.06.32-1.59.47l-.4.11-.32.07-.65.13-1.28.26a30.8 30.8 0 0 0-4.67 1.19 13.34 13.34 0 0 0-3.77 2.18 72.38 72.38 0 0 0-7.16 6.93l-1.76 1.9-2.09 2a9 9 0 0 1-1.1.94l-1.14.88c-.38.28-.75.59-1.15.86l-1.2.76a50.42 50.42 0 0 1-4.93 2.7c-1.7.72-3.39 1.5-5.12 2.07a82.11 82.11 0 0 1-10.45 2.92c-3.51.79-7 1.29-10.55 1.8s-7 .79-10.53 1.11l-5.22.41c-.44 0-.86.07-1.32.09l-1.45.05h-1.45c-.49 0-1-.07-1.47-.1a27.86 27.86 0 0 1-11-3.29c-1.63-.83-3.09-1.62-4.56-2.31l-1.07-.44a7.8 7.8 0 0 0-1.08-.39l-1.08-.33c-.36-.09-.72-.14-1.09-.21a20.59 20.59 0 0 0-9.18.69c-1.54.37-3.22 1-4.84 1.5l-4.9 1.71a93.55 93.55 0 0 1-10.26 3.28 40.1 40.1 0 0 1-11 .85 74.36 74.36 0 0 1-10.66-1.52c-1.73-.38-3.47-.74-5.17-1.19l-2.56-.64-2.55-.7c-3.4-.92-6.78-2-10.11-3.19-1.66-.6-3.31-1.28-4.86-1.8a13.73 13.73 0 0 0-4.59-.83 91 91 0 0 0-10.16.91l-5.18.67c-1.73.23-3.43.47-5.24.64a60.57 60.57 0 0 1-10.69-.05 104.68 104.68 0 0 1-20.69-4.15 194.89 194.89 0 0 1-38.43-16.69.33.33 0 0 1-.12-.44.32.32 0 0 1 .43-.12z" class="cls-8"/>
    <path d="M205.13 449.3s-10-17.08-23.13-13 17.66 8.76 23.13 13z" class="cls-6"/>
    <path d="M182 436.34c-5.2 1.63-3.5 3.33.78 5.07 5-.89 11-1.32 16.09.23-4.17-3.91-10.09-7.43-16.87-5.3z" class="cls-60"/>
    <path d="M232.19 463.5s-7.22-12.61-15.53-17.22-4-8.13 0-8.35-7.94-10.21 0-15.31 19.15 16.6 15.53 40.88z" class="cls-6"/>
    <path d="M216.66 422.62a6.84 6.84 0 0 0-1.46 1.26 66.5 66.5 0 0 1 17 39.62c3.61-24.28-7.59-45.99-15.54-40.88z" class="cls-60"/>
    <path d="M417 429.65s29-26.92 41.17-18.94-35.6 13.81-41.17 18.94z" class="cls-6"/>
    <path d="M458.21 410.71c-12.16-8-41.17 18.94-41.17 18.94.92-.84 3-1.71 5.75-2.6 9.92-5.47 25.18-12.71 37.33-13.31.23-.97-.31-1.98-1.91-3.03z" class="cls-60"/>
    <path d="M394.82 461s5-15.92 16.45-15.68 2.58 9.98-16.45 15.68z" class="cls-6"/>
    <path d="M205.13 449.3s-10-17.08-23.13-13 17.66 8.76 23.13 13zM232.19 463.5s-7.22-12.61-15.53-17.22-4-8.13 0-8.35-7.94-10.21 0-15.31 19.15 16.6 15.53 40.88zM417 429.65s29-26.92 41.17-18.94-35.6 13.81-41.17 18.94zM394.82 461s5-15.92 16.45-15.68 2.58 9.98-16.45 15.68z" class="cls-9"/>
    <path d="M192.75 490.82s-23.15-25.4-48.95-25.91a10 10 0 0 1-9.45-12 10.06 10.06 0 0 1 14.19-7.1c9.87 4.76 32.75 22.7 44.21 45.01z" class="cls-6"/>
    <path d="M141.77 449.92s-1.49 2.76 2 5 19.66 5.82 25.56 11.29c0 0-11.33-11-17.92-15.17s-8.18-3.13-9.64-1.12z" class="cls-7"/>
    <path d="M192.75 490.82s-23.15-25.4-48.95-25.91a10 10 0 0 1-9.45-12 10.06 10.06 0 0 1 14.19-7.1c9.87 4.76 32.75 22.7 44.21 45.01z" class="cls-9"/>
    <path d="M200.78 513.88s-9.67-7.72-25.65-6.66a6.18 6.18 0 0 1-6.49-6.93 6.24 6.24 0 0 1 8.39-5.15c6.36 2.43 15.69 7.65 23.75 18.74z" class="cls-6"/>
    <path d="M168.64 500.29a6 6 0 0 0 0 .85c5.23-.54 17.67.67 28.71 8.44A51.67 51.67 0 0 0 177 495.14a6.24 6.24 0 0 0-8.36 5.15z" class="cls-7"/>
    <path d="M200.78 513.88s-9.67-7.72-25.65-6.66a6.18 6.18 0 0 1-6.49-6.93 6.24 6.24 0 0 1 8.39-5.15c6.36 2.43 15.69 7.65 23.75 18.74z" class="cls-9"/>
</svg>
