<svg xmlns="http://www.w3.org/2000/svg" width="11" height="13" fill="none" viewBox="0 0 166 168">
    <path fill="#adafae" fill-rule="evenodd" d="M59 18c0-2.485 2.015-4.5 4.5-4.5H104V37c0 4.694 3.806 8.5 8.5 8.5H142V129c0 2.485-2.015 4.5-4.5 4.5h-74c-2.485 0-4.5-2.015-4.5-4.5V18zm65.259 9.425L117 21.175V32.5h13.407l-6.043-4.986-.053-.044-.052-.044zM63.5.5C53.835.5 46 8.335 46 18v3.5H28.5C18.835 21.5 11 29.335 11 39v111c0 9.665 7.835 17.5 17.5 17.5h74c9.665 0 17.5-7.835 17.5-17.5v-3.5h17.5c9.665 0 17.5-7.835 17.5-17.5V35.936l-2.364-1.95-19.947-16.456-17.948-15.456L112.913.5H63.5zm43.5 146H63.5c-9.665 0-17.5-7.835-17.5-17.5V34.5H28.5c-2.485 0-4.5 2.015-4.5 4.5v111c0 2.485 2.015 4.5 4.5 4.5h74c2.485 0 4.5-2.015 4.5-4.5v-3.5z" clip-rule="evenodd"/>
</svg>
